<svg xmlns="http://www.w3.org/2000/svg" width="100" height="100"><path fill="#363A56" d="M67.75 0H17.833a5 5 0 0 0-5 5v90a5 5 0 0 0 5 5h65.333a5 5 0 0 0 5-5V20.417L67.75 0z"/><path fill="#FFF" d="M67.75 15.417a5 5 0 0 0 5 5h15.417L67.75 0v15.417z" opacity=".3"/><path fill="#FFF" d="M28.868 2.75h-3.069V0h3.069v2.75zm3.068 0h-3.069V5.5h3.069V2.75zM28.868 5.5h-3.069v2.75h3.069V5.5zm3.068 2.75h-3.069V11h3.069V8.25zM28.868 11h-3.069v2.75h3.069V11zm3.068 2.75h-3.069v2.75h3.069v-2.75zm-3.068 2.75h-3.069v2.75h3.069V16.5zm3.068 2.75h-3.069V22h3.069v-2.75zM28.868 22h-3.069v2.75h3.069V22zm3.068 2.75h-3.069v2.75h3.069v-2.75zm-3.068 2.75h-3.069v2.75h3.069V27.5zm3.068 2.75h-3.069V33h3.069v-2.75zM28.868 33h-3.069v2.75h3.069V33zm3.068 2.75h-3.069v2.75h3.069v-2.75zm-3.068 2.75h-3.069v2.75h3.069V38.5zm3.068 2.75h-3.069V44h3.069v-2.75zM28.868 44h-3.069v2.75h3.069V44zm3.068 2.75h-3.069v2.75h3.069v-2.75zm-3.068 2.75h-3.069v2.75h3.069V49.5zm3.068 2.75h-3.069V55h3.069v-2.75zM28.868 55h-3.069v2.75h3.069V55zm3.068 2.75h-3.069v2.75h3.069v-2.75zm1.598 11.5V60.5h-9.333v8.75h9.333zm0 1v2.5h-9.333v-2.5h9.333z"/></svg>