<svg version="1.1" xmlns="http://www.w3.org/2000/svg" xmlns:xlink="http://www.w3.org/1999/xlink" width="100px" height="100px" viewBox="0 0 100 100" xml:space="preserve">
<path fill="#FF6469" d="M67.75,0H17.833c-2.761,0-5,2.239-5,5v90c0,2.761,2.239,5,5,5h65.333c2.761,0,5-2.239,5-5V20.417L67.75,0z"
	/>
<path opacity="0.3" fill="#FFFFFF" d="M67.75,15.417c0,2.761,2.239,5,5,5h15.417L67.75,0V15.417z"/>
<path fill="#FFFFFF" d="M53.626,49.038v16.028c0,0-3.847-5.001-11.797-5.001s-15.644,5.77-15.644,11.797s6.283,11.54,15.259,11.54
	s15.259-6.54,15.259-8.847c0-2.308,0.032-45.232,0.032-45.232s7.405-1.122,15.612,4.84l2.051-1.411c0,0-4.103-6.155-17.663-6.155
	h-2.981L53.626,49.038z"/>
</svg>
