<svg xmlns="http://www.w3.org/2000/svg" width="100" height="100"><path fill="#FF6469" d="M67.75 0H17.833a5 5 0 0 0-5 5v90a5 5 0 0 0 5 5h65.333a5 5 0 0 0 5-5V20.417L67.75 0z"/><path fill="#FFF" d="M67.75 15.417a5 5 0 0 0 5 5h15.417L67.75 0v15.417z" opacity=".3"/><path fill="#FFF" d="M53.626 49.038v16.028s-3.847-5.001-11.797-5.001-15.644 5.77-15.644 11.797 6.283 11.54 15.259 11.54 15.259-6.54 15.259-8.847c0-2.308.032-45.232.032-45.232s7.405-1.122 15.612 4.84l2.051-1.411s-4.103-6.155-17.663-6.155h-2.981l-.128 22.441z"/></svg>