<svg version="1.1" xmlns="http://www.w3.org/2000/svg" xmlns:xlink="http://www.w3.org/1999/xlink" width="100px" height="100px" viewBox="0 0 100 100" xml:space="preserve">
<path fill="#363A56" d="M67.75,0H17.833c-2.761,0-5,2.239-5,5v90c0,2.761,2.239,5,5,5h65.333c2.761,0,5-2.239,5-5V20.417L67.75,0z"
	/>
<path opacity="0.3" fill="#FFFFFF" d="M67.75,15.417c0,2.761,2.239,5,5,5h15.417L67.75,0V15.417z"/>
<g>
	<path fill="#FFFFFF" d="M27.839,46.773h-0.052l-3.217,1.531l-0.649-2.957l4.462-2.075h3.27v16.863h-3.814V46.773z"/>
	<path fill="#FFFFFF" d="M49.657,51.624c0,5.215-2.101,8.795-6.408,8.795c-4.359,0-6.279-3.918-6.305-8.691
		c0-4.878,2.075-8.743,6.434-8.743C47.894,42.985,49.657,47.006,49.657,51.624z M40.915,51.728
		c-0.026,3.865,0.908,5.707,2.439,5.707c1.531,0,2.361-1.919,2.361-5.759c0-3.736-0.804-5.708-2.387-5.708
		C41.874,45.968,40.889,47.811,40.915,51.728z"/>
	<path fill="#FFFFFF" d="M56.637,46.773h-0.053l-3.217,1.531l-0.648-2.957l4.462-2.075h3.27v16.863h-3.813V46.773z"/>
	<path fill="#FFFFFF" d="M71.034,46.773h-0.053l-3.217,1.531l-0.648-2.957l4.462-2.075h3.27v16.863h-3.813
		C71.034,60.134,71.034,46.773,71.034,46.773z"/>
	<path fill="#FFFFFF" d="M35.259,72.978c0,5.214-2.101,8.794-6.408,8.794c-4.359,0-6.279-3.918-6.305-8.691
		c0-4.877,2.075-8.743,6.434-8.743C33.495,64.338,35.259,68.36,35.259,72.978z M26.516,73.081c-0.026,3.866,0.908,5.708,2.439,5.708
		c1.531,0,2.361-1.92,2.361-5.759c0-3.736-0.804-5.708-2.387-5.708C27.476,67.322,26.49,69.164,26.516,73.081z"/>
	<path fill="#FFFFFF" d="M42.238,68.126h-0.052l-3.217,1.531L38.32,66.7l4.462-2.076h3.27v16.864h-3.814
		C42.238,81.488,42.238,68.126,42.238,68.126z"/>
	<path fill="#FFFFFF" d="M56.637,68.126h-0.053l-3.217,1.531L52.719,66.7l4.462-2.076h3.27v16.864h-3.813V68.126z"/>
	<path fill="#FFFFFF" d="M78.453,72.978c0,5.214-2.102,8.794-6.408,8.794c-4.359,0-6.278-3.918-6.305-8.691
		c0-4.877,2.076-8.743,6.434-8.743C76.689,64.338,78.453,68.36,78.453,72.978z M69.71,73.081c-0.026,3.866,0.908,5.708,2.439,5.708
		s2.361-1.92,2.361-5.759c0-3.736-0.805-5.708-2.387-5.708C70.67,67.322,69.685,69.164,69.71,73.081z"/>
</g>
</svg>
