<svg xmlns="http://www.w3.org/2000/svg" width="100" height="100"><path fill="#363A56" d="M67.75 0H17.833a5 5 0 0 0-5 5v90a5 5 0 0 0 5 5h65.333a5 5 0 0 0 5-5V20.417L67.75 0z"/><path fill="#FFF" d="M67.75 15.417a5 5 0 0 0 5 5h15.417L67.75 0v15.417z" opacity=".3"/><path fill="#FFF" d="M27.839 46.773h-.052l-3.217 1.531-.649-2.957 4.462-2.075h3.27v16.863h-3.814V46.773zm21.818 4.851c0 5.215-2.101 8.795-6.408 8.795-4.359 0-6.279-3.918-6.305-8.691 0-4.878 2.075-8.743 6.434-8.743 4.516 0 6.279 4.021 6.279 8.639zm-8.742.104c-.026 3.865.908 5.707 2.439 5.707 1.531 0 2.361-1.919 2.361-5.759 0-3.736-.804-5.708-2.387-5.708-1.454 0-2.439 1.843-2.413 5.76zm15.722-4.955h-.053l-3.217 1.531-.648-2.957 4.462-2.075h3.27v16.863h-3.813V46.773zm14.397 0h-.053l-3.217 1.531-.648-2.957 4.462-2.075h3.27v16.863h-3.813l-.001-13.362zM35.259 72.978c0 5.214-2.101 8.794-6.408 8.794-4.359 0-6.279-3.918-6.305-8.691 0-4.877 2.075-8.743 6.434-8.743 4.515 0 6.279 4.022 6.279 8.64zm-8.743.103c-.026 3.866.908 5.708 2.439 5.708 1.531 0 2.361-1.92 2.361-5.759 0-3.736-.804-5.708-2.387-5.708-1.453 0-2.439 1.842-2.413 5.759zm15.722-4.955h-.052l-3.217 1.531-.649-2.957 4.462-2.076h3.27v16.864h-3.814V68.126zm14.399 0h-.053l-3.217 1.531-.648-2.957 4.462-2.076h3.27v16.864h-3.813V68.126zm21.816 4.852c0 5.214-2.102 8.794-6.408 8.794-4.359 0-6.278-3.918-6.305-8.691 0-4.877 2.076-8.743 6.434-8.743 4.515 0 6.279 4.022 6.279 8.64zm-8.743.103c-.026 3.866.908 5.708 2.439 5.708s2.361-1.92 2.361-5.759c0-3.736-.805-5.708-2.387-5.708-1.453 0-2.438 1.842-2.413 5.759z"/></svg>