<svg xmlns="http://www.w3.org/2000/svg" width="100" height="100"><path fill="#1B75B3" d="M67.75 0H17.833a5 5 0 0 0-5 5v90a5 5 0 0 0 5 5h65.333a5 5 0 0 0 5-5V20.417L67.75 0z" opacity=".9"/><path fill="#FFF" d="M67.75 15.417a5 5 0 0 0 5 5h15.417L67.75 0v15.417z" opacity=".4"/><path fill="#FFF" d="M59.692 38.54v6.529c-2.084-1.941-4.312-3.392-6.682-4.352-2.35-.96-4.853-1.441-7.51-1.441-5.231 0-9.236 1.604-12.015 4.812-2.779 3.188-4.169 7.806-4.169 13.854 0 6.028 1.39 10.646 4.169 13.854 2.779 3.188 6.784 4.782 12.015 4.782 2.656 0 5.16-.48 7.51-1.441 2.37-.96 4.598-2.411 6.682-4.353v6.467a25.199 25.199 0 0 1-6.897 3.31c-2.411.736-4.966 1.103-7.663 1.103-6.927 0-12.383-2.115-16.368-6.345-3.985-4.25-5.977-10.043-5.977-17.379 0-7.356 1.992-13.149 5.977-17.379 3.985-4.25 9.441-6.375 16.368-6.375 2.738 0 5.313.368 7.724 1.103 2.432.717 4.711 1.8 6.836 3.251M46.087 63.696V57.97h-5.683v-2.393h5.683v-5.683h2.421v5.683h5.683v2.393h-5.683v5.726h-2.421zm23.021 0V57.97h-5.683v-2.393h5.683v-5.683h2.421v5.683h5.683v2.393h-5.683v5.726h-2.421z"/></svg>