<svg version="1.1" xmlns="http://www.w3.org/2000/svg" xmlns:xlink="http://www.w3.org/1999/xlink" width="100px" height="100px" viewBox="0 0 100 100" xml:space="preserve">
<path opacity="0.9" fill="#1B75B3" d="M67.75,0H17.833c-2.761,0-5,2.239-5,5v90c0,2.761,2.239,5,5,5h65.333c2.761,0,5-2.239,5-5
	V20.417L67.75,0z"/>
<path opacity="0.4" fill="#FFFFFF" d="M67.75,15.417c0,2.761,2.239,5,5,5h15.417L67.75,0V15.417z"/>
<path fill="#FFFFFF" d="M59.692,38.54v6.529c-2.084-1.941-4.312-3.392-6.682-4.352c-2.35-0.96-4.853-1.441-7.51-1.441
	c-5.231,0-9.236,1.604-12.015,4.812c-2.779,3.188-4.169,7.806-4.169,13.854c0,6.028,1.39,10.646,4.169,13.854
	c2.779,3.188,6.784,4.782,12.015,4.782c2.656,0,5.16-0.48,7.51-1.441c2.37-0.96,4.598-2.411,6.682-4.353v6.467
	c-2.166,1.471-4.465,2.575-6.897,3.31c-2.411,0.736-4.966,1.103-7.663,1.103c-6.927,0-12.383-2.115-16.368-6.345
	c-3.985-4.25-5.977-10.043-5.977-17.379c0-7.356,1.992-13.149,5.977-17.379c3.985-4.25,9.441-6.375,16.368-6.375
	c2.738,0,5.313,0.368,7.724,1.103C55.288,36.006,57.567,37.089,59.692,38.54 M46.087,63.696V57.97h-5.683v-2.393h5.683v-5.683h2.421
	v5.683h5.683v2.393h-5.683v5.726H46.087z M69.108,63.696V57.97h-5.683v-2.393h5.683v-5.683h2.421v5.683h5.683v2.393h-5.683v5.726
	H69.108z"/>
</svg>
