<svg version="1.1" xmlns="http://www.w3.org/2000/svg" xmlns:xlink="http://www.w3.org/1999/xlink" width="100px" height="100px" viewBox="0 0 100 100" xml:space="preserve">
<path opacity="0.9" fill="#1B75B3" d="M67.75,0H17.833c-2.761,0-5,2.239-5,5v90c0,2.761,2.239,5,5,5h65.333c2.761,0,5-2.239,5-5
	V20.417L67.75,0z"/>
<path opacity="0.4" fill="#FFFFFF" d="M67.75,15.417c0,2.761,2.239,5,5,5h15.417L67.75,0V15.417z"/>
<path fill="#FFFFFF" d="M73.97,49.403c-0.485,0-0.883,0.003-1.28,0c-3.955-0.037-7.911-0.083-11.866-0.104
	c-0.509-0.003-0.711-0.143-0.844-0.676c-0.81-3.246-2.533-5.733-5.998-6.495c-4.429-0.975-9.252,0.638-11.225,5.624
	c-2.404,6.077-2.209,12.123,1.406,17.736c2.217,3.443,6.293,4.977,10.015,4.109c2.21-0.515,3.739-1.911,4.691-3.903
	c0.504-1.055,0.813-2.21,1.138-3.341c0.122-0.424,0.243-0.569,0.701-0.539c3.733,0.243,7.469,0.433,11.201,0.693
	c1.754,0.122,1.625-0.24,1.505,1.755c-0.414,6.88-4.017,11.653-9.982,14.79c-3.327,1.75-6.916,2.523-10.658,2.59
	c-3.007,0.054-6.013,0.072-8.977-0.592c-4.387-0.982-7.935-3.331-10.936-6.61c-3.481-3.803-5.805-8.173-6.443-13.327
	c-0.805-6.5-0.545-12.928,2.653-18.814c3.914-7.202,10.042-11.557,18.173-12.778c5.588-0.839,11.027-0.069,16.012,2.747
	c5.378,3.039,8.456,7.849,10.078,13.687c0.234,0.841,0.383,1.706,0.557,2.563C73.941,48.773,73.938,49.036,73.97,49.403z"/>
</svg>
