<svg xmlns="http://www.w3.org/2000/svg" width="100" height="100"><path fill="#1B75B3" d="M67.75 0H17.833a5 5 0 0 0-5 5v90a5 5 0 0 0 5 5h65.333a5 5 0 0 0 5-5V20.417L67.75 0z" opacity=".9"/><path fill="#FFF" d="M67.75 15.417a5 5 0 0 0 5 5h15.417L67.75 0v15.417z" opacity=".4"/><path fill="#FFF" d="M73.97 49.403c-.485 0-.883.003-1.28 0-3.955-.037-7.911-.083-11.866-.104-.509-.003-.711-.143-.844-.676-.81-3.246-2.533-5.733-5.998-6.495-4.429-.975-9.252.638-11.225 5.624-2.404 6.077-2.209 12.123 1.406 17.736 2.217 3.443 6.293 4.977 10.015 4.109 2.21-.515 3.739-1.911 4.691-3.903.504-1.055.813-2.21 1.138-3.341.122-.424.243-.569.701-.539 3.733.243 7.469.433 11.201.693 1.754.122 1.625-.24 1.505 1.755-.414 6.88-4.017 11.653-9.982 14.79-3.327 1.75-6.916 2.523-10.658 2.59-3.007.054-6.013.072-8.977-.592-4.387-.982-7.935-3.331-10.936-6.61-3.481-3.803-5.805-8.173-6.443-13.327-.805-6.5-.545-12.928 2.653-18.814 3.914-7.202 10.042-11.557 18.173-12.778 5.588-.839 11.027-.069 16.012 2.747 5.378 3.039 8.456 7.849 10.078 13.687.234.841.383 1.706.557 2.563.05.255.047.518.079.885z"/></svg>