<svg xmlns="http://www.w3.org/2000/svg" width="100" height="100"><path fill="#AAE51B" d="M67.75 0H17.833a5 5 0 0 0-5 5v90a5 5 0 0 0 5 5h65.333a5 5 0 0 0 5-5V20.417L67.75 0z"/><path fill="#FFF" d="M67.75 15.417a5 5 0 0 0 5 5h15.417L67.75 0v15.417z" opacity=".3"/><path fill="#FFF" d="M21.005 61.472l21.12-9.812v4.665l-15.972 6.996v.088l15.972 6.996v4.664l-21.12-9.812v-3.785zm21.917 19.907L52.338 45.3h4.444l-9.415 36.079h-4.445zm35.073-15.99l-21.12 9.68v-4.664L73.2 63.409v-.088l-16.324-6.996V51.66l21.12 9.68v4.049z"/></svg>