<svg version="1.1" xmlns="http://www.w3.org/2000/svg" xmlns:xlink="http://www.w3.org/1999/xlink" width="100px" height="100px" viewBox="0 0 100 100" xml:space="preserve">
<path fill="#AAE51B" d="M67.75,0H17.833c-2.761,0-5,2.239-5,5v90c0,2.761,2.239,5,5,5h65.333c2.761,0,5-2.239,5-5V20.417L67.75,0z"
	/>
<path opacity="0.3" fill="#FFFFFF" d="M67.75,15.417c0,2.761,2.239,5,5,5h15.417L67.75,0V15.417z"/>
<g>
	<path fill="#FFFFFF" d="M21.005,61.472l21.12-9.812v4.665l-15.972,6.996v0.088l15.972,6.996v4.664l-21.12-9.812
		C21.005,65.256,21.005,61.472,21.005,61.472z"/>
	<path fill="#FFFFFF" d="M42.922,81.379l9.416-36.079h4.444l-9.415,36.079H42.922z"/>
	<path fill="#FFFFFF" d="M77.995,65.389l-21.12,9.68v-4.664L73.2,63.409v-0.088l-16.324-6.996v-4.665l21.12,9.68V65.389z"/>
</g>
</svg>
