<svg version="1.1" xmlns="http://www.w3.org/2000/svg" xmlns:xlink="http://www.w3.org/1999/xlink" width="100px" height="100px" viewBox="0 0 100 100" xml:space="preserve">
<path fill="#0070BA" d="M67.75,0H17.833c-2.761,0-5,2.239-5,5v90c0,2.761,2.239,5,5,5h65.333c2.761,0,5-2.239,5-5V20.417L67.75,0z"
	/>
<path opacity="0.3" fill="#FFFFFF" d="M67.75,15.417c0,2.761,2.239,5,5,5h15.417L67.75,0V15.417z"/>
<path fill="#FFFFFF" d="M29.72,35.667l3.692,41.404l16.564,4.596l16.61-4.604l3.695-41.396H29.72z M62.612,45.135l-1.249,13.994l0,0
	L60.5,68.783l-0.077,0.859L50.007,72.53l-10.402-2.888l-0.71-7.973h5.096l0.362,4.051l5.659,1.526l0.014-0.004h0.004l5.647-1.523
	l0.592-6.586H44.419l-0.101-1.14l-0.232-2.576l-0.121-1.361h12.756l0.466-5.198H37.755l-0.101-1.143l-0.232-2.576l-0.12-1.363
	h25.433L62.612,45.135L62.612,45.135z"/>
</svg>
