<svg xmlns="http://www.w3.org/2000/svg" width="100" height="100"><path fill="#0070BA" d="M67.75 0H17.833a5 5 0 0 0-5 5v90a5 5 0 0 0 5 5h65.333a5 5 0 0 0 5-5V20.417L67.75 0z"/><path fill="#FFF" d="M67.75 15.417a5 5 0 0 0 5 5h15.417L67.75 0v15.417z" opacity=".3"/><path fill="#FFF" d="M29.72 35.667l3.692 41.404 16.564 4.596 16.61-4.604 3.695-41.396H29.72zm32.892 9.468l-1.249 13.994-.863 9.654-.077.859-10.416 2.888-10.402-2.888-.71-7.973h5.096l.362 4.051 5.659 1.526.014-.004h.004l5.647-1.523.592-6.586h-11.85l-.101-1.14-.232-2.576-.121-1.361h12.756l.466-5.198H37.755l-.101-1.143-.232-2.576-.12-1.363h25.433l-.123 1.359z"/></svg>