<svg version="1.1" xmlns="http://www.w3.org/2000/svg" xmlns:xlink="http://www.w3.org/1999/xlink" width="100px" height="100px" viewBox="0 0 100 100" xml:space="preserve">
<path opacity="0.9" fill="#43D4AD" d="M67.75,0H17.833c-2.761,0-5,2.239-5,5v90c0,2.761,2.239,5,5,5h65.333c2.761,0,5-2.239,5-5
	V20.417L67.75,0z"/>
<path opacity="0.4" fill="#FFFFFF" d="M67.75,15.417c0,2.761,2.239,5,5,5h15.417L67.75,0V15.417z"/>
<g>
	<path fill="#FFFFFF" d="M50.015,47.724c5.35,0,9.705,4.355,9.705,9.705s-4.355,9.705-9.705,9.705s-9.705-4.355-9.705-9.705
		S44.665,47.724,50.015,47.724 M50.015,45.642c-6.495,0-11.787,5.283-11.787,11.787s5.293,11.787,11.787,11.787
		s11.787-5.292,11.787-11.787C61.802,50.934,56.51,45.642,50.015,45.642L50.015,45.642z"/>
	<path fill="#FFFFFF" d="M52.136,35.275l0.956,5.093c0.142,0.767,0.71,1.392,1.458,1.619c1.088,0.322,2.13,0.748,3.077,1.259
		c0.313,0.171,0.653,0.246,0.985,0.246c0.417,0,0.824-0.123,1.174-0.359l4.337-2.973l3.143,3.143l-2.954,4.337
		c-0.445,0.643-0.483,1.477-0.113,2.168c0.501,0.928,0.919,1.931,1.231,2.992c0.227,0.748,0.843,1.307,1.61,1.449l5.122,0.966v4.441
		l-5.122,0.956c-0.767,0.142-1.392,0.701-1.61,1.449c-0.322,1.079-0.748,2.102-1.259,3.049c-0.369,0.691-0.332,1.524,0.113,2.168
		l2.935,4.289L64.075,74.7l-4.307-2.955c-0.351-0.246-0.767-0.359-1.174-0.359c-0.341,0-0.672,0.085-0.985,0.246
		c-0.946,0.511-1.979,0.927-3.049,1.24c-0.748,0.217-1.316,0.843-1.458,1.619l-0.956,5.093h-4.441l-0.966-5.151
		c-0.142-0.758-0.691-1.382-1.439-1.61c-1.032-0.322-2.017-0.729-2.926-1.221c-0.313-0.171-0.653-0.246-0.994-0.246
		c-0.417,0-0.824,0.123-1.174,0.359l-4.251,2.907l-3.143-3.143l2.907-4.251c0.436-0.643,0.483-1.477,0.113-2.168
		c-0.511-0.937-0.928-1.95-1.24-3.011c-0.227-0.748-0.843-1.307-1.61-1.449l-5.122-0.956v-4.441l5.122-0.956
		c0.767-0.142,1.382-0.701,1.61-1.449c0.313-1.042,0.72-2.036,1.212-2.954c0.369-0.681,0.322-1.515-0.113-2.159l-2.944-4.308
		l3.143-3.143l4.279,2.926c0.351,0.246,0.767,0.359,1.174,0.359c0.341,0,0.681-0.085,0.994-0.255
		c0.919-0.501,1.913-0.919,2.954-1.231c0.739-0.227,1.297-0.843,1.439-1.61l0.966-5.151L52.136,35.275 M52.865,33.191h-5.889
		c-0.559,0-1.088,0.445-1.184,0.985l-1.098,5.87c-1.165,0.359-2.291,0.824-3.343,1.392l-4.876-3.343
		c-0.199-0.132-0.436-0.199-0.672-0.199c-0.322,0-0.643,0.113-0.862,0.341l-4.166,4.166c-0.388,0.388-0.455,1.079-0.142,1.534
		l3.361,4.905c-0.568,1.051-1.023,2.178-1.373,3.343l-5.842,1.098c-0.559,0.113-1.004,0.643-1.004,1.193v5.889
		c0,0.559,0.445,1.088,0.985,1.184l5.832,1.098c0.359,1.193,0.824,2.339,1.401,3.408l-3.323,4.857
		c-0.313,0.455-0.246,1.146,0.142,1.534l4.166,4.166c0.227,0.227,0.549,0.341,0.862,0.341c0.236,0,0.474-0.067,0.672-0.199
		l4.857-3.323c1.042,0.568,2.149,1.023,3.304,1.382l1.098,5.87c0.104,0.539,0.635,0.985,1.184,0.985h5.889
		c0.559,0,1.088-0.445,1.184-0.985l1.088-5.813c1.203-0.351,2.357-0.824,3.446-1.401l4.914,3.361
		c0.199,0.132,0.436,0.199,0.672,0.199c0.322,0,0.643-0.113,0.862-0.341l4.166-4.166c0.388-0.388,0.455-1.079,0.142-1.534
		l-3.343-4.886c0.587-1.088,1.07-2.244,1.43-3.446l5.832-1.098c0.539-0.104,0.985-0.635,0.985-1.184v-5.889
		c0-0.559-0.445-1.088-0.985-1.184l-5.842-1.098c-0.351-1.184-0.824-2.31-1.392-3.38l3.38-4.942
		c0.313-0.455,0.246-1.146-0.142-1.534l-4.166-4.166c-0.227-0.227-0.549-0.341-0.862-0.341c-0.236,0-0.474,0.067-0.672,0.199
		l-4.942,3.38c-1.098-0.587-2.263-1.07-3.485-1.42l-1.088-5.813C53.953,33.636,53.424,33.191,52.865,33.191L52.865,33.191z"/>
</g>
</svg>
