<svg xmlns="http://www.w3.org/2000/svg" width="100" height="100"><path fill="#43D4AD" d="M67.75 0H17.833a5 5 0 0 0-5 5v90a5 5 0 0 0 5 5h65.333a5 5 0 0 0 5-5V20.417L67.75 0z" opacity=".9"/><path fill="#FFF" d="M67.75 15.417a5 5 0 0 0 5 5h15.417L67.75 0v15.417z" opacity=".4"/><g fill="#FFF"><path d="M50.015 47.724c5.35 0 9.705 4.355 9.705 9.705s-4.355 9.705-9.705 9.705-9.705-4.355-9.705-9.705 4.355-9.705 9.705-9.705m0-2.082c-6.495 0-11.787 5.283-11.787 11.787s5.293 11.787 11.787 11.787 11.787-5.292 11.787-11.787c0-6.495-5.292-11.787-11.787-11.787z"/><path d="M52.136 35.275l.956 5.093c.142.767.71 1.392 1.458 1.619 1.088.322 2.13.748 3.077 1.259a2.094 2.094 0 0 0 2.159-.113l4.337-2.973 3.143 3.143-2.954 4.337a2.077 2.077 0 0 0-.113 2.168A15.52 15.52 0 0 1 65.43 52.8a2.079 2.079 0 0 0 1.61 1.449l5.122.966v4.441l-5.122.956a2.066 2.066 0 0 0-1.61 1.449 16.156 16.156 0 0 1-1.259 3.049 2.08 2.08 0 0 0 .113 2.168l2.935 4.289-3.144 3.133-4.307-2.955a2.044 2.044 0 0 0-1.174-.359c-.341 0-.672.085-.985.246-.946.511-1.979.927-3.049 1.24a2.074 2.074 0 0 0-1.458 1.619l-.956 5.093h-4.441l-.966-5.151a2.082 2.082 0 0 0-1.439-1.61 16.44 16.44 0 0 1-2.926-1.221 2.056 2.056 0 0 0-.994-.246c-.417 0-.824.123-1.174.359l-4.251 2.907-3.143-3.143 2.907-4.251a2.097 2.097 0 0 0 .113-2.168 15.328 15.328 0 0 1-1.24-3.011 2.079 2.079 0 0 0-1.61-1.449l-5.122-.956v-4.441l5.122-.956a2.08 2.08 0 0 0 1.61-1.449c.313-1.042.72-2.036 1.212-2.954a2.087 2.087 0 0 0-.113-2.159l-2.944-4.308 3.143-3.143 4.279 2.926c.351.246.767.359 1.174.359.341 0 .681-.085.994-.255a15.46 15.46 0 0 1 2.954-1.231 2.082 2.082 0 0 0 1.439-1.61l.966-5.151 4.44.003m.729-2.084h-5.889c-.559 0-1.088.445-1.184.985l-1.098 5.87a18.536 18.536 0 0 0-3.343 1.392l-4.876-3.343a1.22 1.22 0 0 0-.672-.199c-.322 0-.643.113-.862.341l-4.166 4.166c-.388.388-.455 1.079-.142 1.534l3.361 4.905a17.818 17.818 0 0 0-1.373 3.343l-5.842 1.098c-.559.113-1.004.643-1.004 1.193v5.889c0 .559.445 1.088.985 1.184l5.832 1.098a18.238 18.238 0 0 0 1.401 3.408l-3.323 4.857c-.313.455-.246 1.146.142 1.534l4.166 4.166c.227.227.549.341.862.341.236 0 .474-.067.672-.199l4.857-3.323a18.128 18.128 0 0 0 3.304 1.382l1.098 5.87c.104.539.635.985 1.184.985h5.889c.559 0 1.088-.445 1.184-.985l1.088-5.813a18.33 18.33 0 0 0 3.446-1.401l4.914 3.361c.199.132.436.199.672.199.322 0 .643-.113.862-.341l4.166-4.166c.388-.388.455-1.079.142-1.534l-3.343-4.886a18.361 18.361 0 0 0 1.43-3.446l5.832-1.098c.539-.104.985-.635.985-1.184v-5.889c0-.559-.445-1.088-.985-1.184l-5.842-1.098a18.295 18.295 0 0 0-1.392-3.38l3.38-4.942c.313-.455.246-1.146-.142-1.534l-4.166-4.166a1.226 1.226 0 0 0-.862-.341c-.236 0-.474.067-.672.199l-4.942 3.38a17.778 17.778 0 0 0-3.485-1.42l-1.088-5.813c-.073-.55-.602-.995-1.161-.995z"/></g></svg>