<svg xmlns="http://www.w3.org/2000/svg" width="100" height="100"><path fill="#61D1F2" d="M67.75 0H17.833a5 5 0 0 0-5 5v90a5 5 0 0 0 5 5h65.333a5 5 0 0 0 5-5V20.417L67.75 0z"/><path fill="#FFF" d="M67.75 15.417a5 5 0 0 0 5 5h15.417L67.75 0v15.417z" opacity=".3"/><path fill="#FFF" d="M55.878 29.274h22.546v4.629H55.878v-4.629zM22.575 86.893h22.546v-4.575H22.575v4.575zm0-42.642h55.767v-4.629H22.575v4.629zm.083 10.565h55.767v-4.629H22.658v4.629zm-.083 11.327h55.767v-4.629H22.575v4.629zm.083 10.729h55.767v-4.793H22.658v4.793z"/></svg>