<svg xmlns="http://www.w3.org/2000/svg" width="100" height="100"><path fill="#2AA8E2" d="M87.651 34.103l-.019-7.734c-.034-3.365-3.063-3.501-3.063-3.501l-43.695-.034c-.977 0-2.183-1.214-2.906-2.058a61.933 61.933 0 0 0-.634-1c-1.838-2.855-2.994-2.651-2.994-2.651H22.906l-6.772-.003c-3.846 0-3.846 3.47-3.846 3.47v13.512l75.363-.001z"/><path fill="#61D1F2" d="M87.7 34.016s-.034-3.535-3.54-3.535c-3.505 0-68.435.034-68.435.034s-3.402.17-3.402 3.638v45.805s0 2.921 2.898 2.921h69.005s3.487 0 3.487-3.086L87.7 34.016z"/></svg>