<svg version="1.1" xmlns="http://www.w3.org/2000/svg" xmlns:xlink="http://www.w3.org/1999/xlink" width="100px" height="100px" viewBox="0 0 100 100" xml:space="preserve">
<path fill="#2AA8E2" d="M87.651,34.103l-0.019-7.734c-0.034-3.365-3.063-3.501-3.063-3.501l-43.695-0.034
	c-0.977,0-2.183-1.214-2.906-2.058c-0.127-0.207-0.326-0.521-0.634-1c-1.838-2.855-2.994-2.651-2.994-2.651H22.906
	c0,0-4.662-0.003-6.772-0.003c-3.846,0-3.846,3.47-3.846,3.47v13.512L87.651,34.103C87.651,34.103,87.651,34.103,87.651,34.103z"/>
<path fill="#61D1F2" d="M87.7,34.016c0,0-0.034-3.535-3.54-3.535c-3.505,0-68.435,0.034-68.435,0.034s-3.402,0.17-3.402,3.638
	v45.805c0,0,0,2.921,2.898,2.921h69.005c0,0,3.487,0,3.487-3.086L87.7,34.016z"/>
<path fill="#2AA8E2" d="M71.924,75.886h-1.515c-1.15,0-2.017-0.812-2.017-1.886V60.09l-2.622,2.614
	c-0.358,0.377-0.879,0.595-1.417,0.595s-1.059-0.218-1.427-0.603l-0.881-0.881c-0.385-0.385-0.597-0.889-0.597-1.421
	c0-0.533,0.216-1.054,0.597-1.431l7.703-7.703c0.352-0.37,0.872-0.585,1.422-0.585c0.536,0,1.059,0.214,1.429,0.585l7.703,7.703
	c0.373,0.389,0.585,0.908,0.585,1.431s-0.205,1.023-0.579,1.413l-0.895,0.894c-0.378,0.38-0.899,0.597-1.429,0.597
	c-0.539,0-1.059-0.218-1.427-0.603l-2.614-2.606v13.91C73.942,75.074,73.074,75.886,71.924,75.886z"/>
</svg>
