<svg xmlns="http://www.w3.org/2000/svg" width="100" height="100"><path fill="#44486B" d="M67.75 0H17.833a5 5 0 0 0-5 5v90a5 5 0 0 0 5 5h65.333a5 5 0 0 0 5-5V20.417L67.75 0z"/><path fill="#FFF" d="M67.75 15.417a5 5 0 0 0 5 5h15.417L67.75 0v15.417z" opacity=".3"/><path fill="#FFF" d="M44.81 60.654l-2.663 9.596h-8.765L44.81 32.861h11.095L67.498 70.25h-9.096l-2.884-9.596H44.81zm9.486-6.324l-2.329-7.932c-.666-2.219-1.332-4.993-1.886-7.212h-.111c-.555 2.219-1.11 5.048-1.719 7.212l-2.219 7.932h8.264zM30.998 75.707h39.004v5.959H30.998z"/></svg>