<svg version="1.1" xmlns="http://www.w3.org/2000/svg" xmlns:xlink="http://www.w3.org/1999/xlink" width="100px" height="100px" viewBox="0 0 100 100" xml:space="preserve">
<path fill="#44486B" d="M67.75,0H17.833c-2.761,0-5,2.239-5,5v90c0,2.761,2.239,5,5,5h65.333c2.761,0,5-2.239,5-5V20.417L67.75,0z"
	/>
<path opacity="0.3" fill="#FFFFFF" d="M67.75,15.417c0,2.761,2.239,5,5,5h15.417L67.75,0V15.417z"/>
<path fill="#FFFFFF" d="M44.81,60.654l-2.663,9.596h-8.765L44.81,32.861h11.095L67.498,70.25h-9.096l-2.884-9.596
	C55.517,60.654,44.81,60.654,44.81,60.654z M54.296,54.33l-2.329-7.932c-0.666-2.219-1.332-4.993-1.886-7.212h-0.111
	c-0.555,2.219-1.11,5.048-1.719,7.212l-2.219,7.932H54.296z"/>
<rect x="30.998" y="75.707" fill="#FFFFFF" width="39.004" height="5.959"/>
</svg>
