<svg version="1.1" xmlns="http://www.w3.org/2000/svg" xmlns:xlink="http://www.w3.org/1999/xlink" width="100px" height="100px" viewBox="0 0 100 100" xml:space="preserve">
<path opacity="0.9" fill="#44486B" d="M67.75,0H17.833c-2.761,0-5,2.239-5,5v90c0,2.761,2.239,5,5,5h65.333c2.761,0,5-2.239,5-5
	V20.417L67.75,0z"/>
<path opacity="0.4" fill="#FFFFFF" d="M67.75,15.417c0,2.761,2.239,5,5,5h15.417L67.75,0V15.417z"/>
<g>
	<path fill="#FFFFFF" d="M36.039,81.667h-9.219v-8.083h9.219V81.667z"/>
	<path fill="#FFFFFF" d="M53.626,51.829c1.074-1.556,2.388-2.773,3.946-3.646c1.558-0.873,3.283-1.31,5.178-1.31
		c3.556,0,6.351,1.184,8.383,3.551c2.031,2.368,3.046,6.026,3.046,10.972v20.269h-9.219V61.287c0-2.659-0.468-4.541-1.405-5.649
		c-0.937-1.107-2.333-1.662-4.184-1.662c-1.263,0-2.378,0.227-3.347,0.681c-0.968,0.455-1.768,1.092-2.399,1.915v25.095h-9.22
		V32.412h9.22V51.829z"/>
</g>
</svg>
