<svg xmlns="http://www.w3.org/2000/svg" width="100" height="100"><path fill="#44486B" d="M67.75 0H17.833a5 5 0 0 0-5 5v90a5 5 0 0 0 5 5h65.333a5 5 0 0 0 5-5V20.417L67.75 0z" opacity=".9"/><path fill="#FFF" d="M67.75 15.417a5 5 0 0 0 5 5h15.417L67.75 0v15.417z" opacity=".4"/><path fill="#FFF" d="M36.039 81.667H26.82v-8.083h9.219v8.083zm17.587-29.838c1.074-1.556 2.388-2.773 3.946-3.646 1.558-.873 3.283-1.31 5.178-1.31 3.556 0 6.351 1.184 8.383 3.551 2.031 2.368 3.046 6.026 3.046 10.972v20.269H64.96V61.287c0-2.659-.468-4.541-1.405-5.649-.937-1.107-2.333-1.662-4.184-1.662-1.263 0-2.378.227-3.347.681a6.402 6.402 0 0 0-2.399 1.915v25.095h-9.22V32.412h9.22v19.417z"/></svg>