<svg xmlns="http://www.w3.org/2000/svg" width="100" height="100"><path fill="#FF543D" d="M67.75 0H17.833a5 5 0 0 0-5 5v90a5 5 0 0 0 5 5h65.333a5 5 0 0 0 5-5V20.417L67.75 0z"/><path fill="#FFF" d="M67.75 15.417a5 5 0 0 0 5 5h15.417L67.75 0v15.417z" opacity=".3"/><path fill="#FFF" d="M71.24 30.364l-4.104 46.104-18.53 5.198-18.404-5.198-4.107-46.104H71.24zm-8.401 9.425H34.494l1.507 17.123h19.628l-.712 7.309-6.312 1.704-6.286-1.704-.415-4.485h-5.611l.708 8.911 11.605 3.207h.126v-.032l11.517-3.175 1.603-17.445H41.196l-.483-5.802h21.611l.515-5.611z"/></svg>