<svg version="1.1" xmlns="http://www.w3.org/2000/svg" xmlns:xlink="http://www.w3.org/1999/xlink" width="100px" height="100px" viewBox="0 0 100 100" xml:space="preserve">
<path fill="#FF543D" d="M67.75,0H17.833c-2.761,0-5,2.239-5,5v90c0,2.761,2.239,5,5,5h65.333c2.761,0,5-2.239,5-5V20.417L67.75,0z"
	/>
<path opacity="0.3" fill="#FFFFFF" d="M67.75,15.417c0,2.761,2.239,5,5,5h15.417L67.75,0V15.417z"/>
<path fill="#FFFFFF" d="M71.24,30.364l-4.104,46.104l-18.53,5.198l-18.404-5.198l-4.107-46.104H71.24z M62.839,39.789H34.494
	l1.507,17.123h19.628l-0.712,7.309l-6.312,1.704l-6.286-1.704l-0.415-4.485h-5.611l0.708,8.911l11.605,3.207h0.126v-0.032
	l11.517-3.175l1.603-17.445H41.196L40.713,45.4h21.611L62.839,39.789L62.839,39.789z"/>
</svg>
