<svg version="1.1" xmlns="http://www.w3.org/2000/svg" xmlns:xlink="http://www.w3.org/1999/xlink" width="100px" height="100px" viewBox="0 0 100 100" xml:space="preserve">
<path fill="#0091FF" d="M67.75,0H17.833c-2.761,0-5,2.239-5,5v90c0,2.761,2.239,5,5,5h65.333c2.761,0,5-2.239,5-5V20.417L67.75,0z"
	/>
<path opacity="0.3" fill="#FFFFFF" d="M67.75,15.417c0,2.761,2.239,5,5,5h15.417L67.75,0V15.417z"/>
<path fill="#FFFFFF" d="M77.672,74.172c-0.563,0-1.126-0.202-1.573-0.612L62.085,60.704l-8.898,8.788
	c-0.916,0.903-2.389,0.893-3.292-0.02c-0.903-0.915-0.894-2.389,0.02-3.292l2.427-2.396L39.463,51.01L23.901,65.284
	c-0.948,0.87-2.42,0.805-3.289-0.142c-0.869-0.948-0.805-2.42,0.142-3.289l17.189-15.766c0.178-0.166,0.377-0.299,0.587-0.398
	c0.331-0.157,0.691-0.232,1.045-0.223c0,0,0.002,0,0.002,0c0.35,0.008,0.699,0.094,1.018,0.258c0.209,0.109,0.406,0.251,0.58,0.426
	l14.48,14.363l4.727-4.668c0.178-0.177,0.376-0.32,0.589-0.428c0.313-0.161,0.657-0.244,1.001-0.252
	c0.353-0.01,0.705,0.062,1.033,0.213c0,0,0.002,0.002,0.002,0.001c0.216,0.101,0.421,0.237,0.605,0.407l15.636,14.343
	c0.947,0.869,1.011,2.342,0.142,3.289C78.929,73.919,78.301,74.172,77.672,74.172z M55.931,50.218c-4.519,0-8.195-3.677-8.195-8.195
	s3.676-8.195,8.195-8.195c4.519,0,8.195,3.677,8.195,8.195S60.45,50.218,55.931,50.218z M55.931,38.483
	c-1.953,0-3.54,1.588-3.54,3.54c0,1.952,1.588,3.54,3.54,3.54c1.952,0,3.54-1.588,3.54-3.54
	C59.472,40.071,57.884,38.483,55.931,38.483z"/>
</svg>
