<svg xmlns="http://www.w3.org/2000/svg" width="100" height="100"><path fill="#0091FF" d="M67.75 0H17.833a5 5 0 0 0-5 5v90a5 5 0 0 0 5 5h65.333a5 5 0 0 0 5-5V20.417L67.75 0z"/><path fill="#FFF" d="M67.75 15.417a5 5 0 0 0 5 5h15.417L67.75 0v15.417z" opacity=".3"/><path fill="#FFF" d="M77.672 74.172a2.318 2.318 0 0 1-1.573-.612L62.085 60.704l-8.898 8.788a2.329 2.329 0 0 1-3.272-3.312l2.427-2.396L39.463 51.01 23.901 65.284a2.327 2.327 0 1 1-3.147-3.431l17.189-15.766a2.308 2.308 0 0 1 1.632-.621h.002c.35.008.699.094 1.018.258.209.109.406.251.58.426l14.48 14.363 4.727-4.668a2.327 2.327 0 0 1 3.23-.059l15.636 14.343a2.328 2.328 0 0 1-1.576 4.043zM55.931 50.218c-4.519 0-8.195-3.677-8.195-8.195s3.676-8.195 8.195-8.195 8.195 3.677 8.195 8.195-3.676 8.195-8.195 8.195zm0-11.735a3.543 3.543 0 0 0-3.54 3.54 3.544 3.544 0 0 0 3.54 3.54 3.544 3.544 0 0 0 3.54-3.54 3.543 3.543 0 0 0-3.54-3.54z"/></svg>