<svg xmlns="http://www.w3.org/2000/svg" width="100" height="100"><path fill="#0091FF" d="M67.75 0H17.833a5 5 0 0 0-5 5v90a5 5 0 0 0 5 5h65.333a5 5 0 0 0 5-5V20.417L67.75 0z"/><path fill="#FFF" d="M67.75 15.417a5 5 0 0 0 5 5h15.417L67.75 0v15.417z" opacity=".3"/><path fill="#FFF" d="M55.468 46.472V72.04c0 1.992.145 3.317.434 3.978.289.66.718 1.153 1.285 1.477.567.324 1.604.485 3.109.485v1.251H44.837V77.98c1.551 0 2.594-.15 3.127-.451.532-.3.955-.799 1.268-1.493.312-.696.469-2.027.469-3.995V59.777c0-3.45-.104-5.685-.313-6.705-.162-.741-.417-1.256-.764-1.546-.347-.289-.822-.434-1.424-.434-.649 0-1.436.174-2.363.521l-.486-1.251 9.589-3.891h1.528zm-2.884-13.275c.973 0 1.8.342 2.484 1.025a3.385 3.385 0 0 1 1.025 2.484c0 .972-.343 1.806-1.025 2.501a3.355 3.355 0 0 1-2.484 1.042c-.973 0-1.807-.347-2.502-1.042-.695-.695-1.042-1.529-1.042-2.501 0-.973.341-1.801 1.025-2.484.683-.683 1.523-1.025 2.519-1.025z"/></svg>