<svg version="1.1" xmlns="http://www.w3.org/2000/svg" xmlns:xlink="http://www.w3.org/1999/xlink" width="100px" height="100px" viewBox="0 0 100 100" xml:space="preserve">
<path fill="#0091FF" d="M67.75,0H17.833c-2.761,0-5,2.239-5,5v90c0,2.761,2.239,5,5,5h65.333c2.761,0,5-2.239,5-5V20.417L67.75,0z"
	/>
<path opacity="0.3" fill="#FFFFFF" d="M67.75,15.417c0,2.761,2.239,5,5,5h15.417L67.75,0V15.417z"/>
<path fill="#FFFFFF" d="M55.468,46.472V72.04c0,1.992,0.145,3.317,0.434,3.978c0.289,0.66,0.718,1.153,1.285,1.477
	c0.567,0.324,1.604,0.485,3.109,0.485v1.251H44.837V77.98c1.551,0,2.594-0.15,3.127-0.451c0.532-0.3,0.955-0.799,1.268-1.493
	c0.312-0.696,0.469-2.027,0.469-3.995V59.777c0-3.45-0.104-5.685-0.313-6.705c-0.162-0.741-0.417-1.256-0.764-1.546
	c-0.347-0.289-0.822-0.434-1.424-0.434c-0.649,0-1.436,0.174-2.363,0.521l-0.486-1.251l9.589-3.891H55.468z M52.584,33.197
	c0.973,0,1.8,0.342,2.484,1.025c0.683,0.684,1.025,1.511,1.025,2.484c0,0.972-0.343,1.806-1.025,2.501
	c-0.684,0.695-1.511,1.042-2.484,1.042c-0.973,0-1.807-0.347-2.502-1.042c-0.695-0.695-1.042-1.529-1.042-2.501
	c0-0.973,0.341-1.801,1.025-2.484C50.748,33.539,51.588,33.197,52.584,33.197z"/>
</svg>
