<svg version="1.1" xmlns="http://www.w3.org/2000/svg" xmlns:xlink="http://www.w3.org/1999/xlink" width="100px" height="100px" viewBox="0 0 100 100" xml:space="preserve">
<path fill="#24AEB5" d="M67.75,0H17.833c-2.761,0-5,2.239-5,5v90c0,2.761,2.239,5,5,5h65.333c2.761,0,5-2.239,5-5V20.417L67.75,0z"
	/>
<path opacity="0.3" fill="#FFFFFF" d="M67.75,15.417c0,2.761,2.239,5,5,5h15.417L67.75,0V15.417z"/>
<path fill="#FFFFFF" d="M50,25.082c-15.625,0-28.292,12.667-28.292,28.292S34.375,81.667,50,81.667S78.292,69,78.292,53.374
	S65.625,25.082,50,25.082z M50,60.898c-4.156,0-7.525-3.369-7.525-7.525s3.369-7.525,7.525-7.525s7.525,3.369,7.525,7.525
	C57.525,57.53,54.156,60.898,50,60.898z M50,59.477c-3.364,0-6.102-2.737-6.102-6.103c0-3.364,2.737-6.101,6.102-6.101
	s6.102,2.737,6.102,6.101C56.102,56.739,53.364,59.477,50,59.477z M50,48.273c-2.813,0-5.102,2.289-5.102,5.101
	c0,2.813,2.289,5.103,5.102,5.103c2.813,0,5.102-2.289,5.102-5.103C55.102,50.562,52.813,48.273,50,48.273z"/>
</svg>
