<svg xmlns="http://www.w3.org/2000/svg" width="100" height="100"><path fill="#24AEB5" d="M67.75 0H17.833a5 5 0 0 0-5 5v90a5 5 0 0 0 5 5h65.333a5 5 0 0 0 5-5V20.417L67.75 0z"/><path fill="#FFF" d="M67.75 15.417a5 5 0 0 0 5 5h15.417L67.75 0v15.417z" opacity=".3"/><path fill="#FFF" d="M50 25.082c-15.625 0-28.292 12.667-28.292 28.292S34.375 81.667 50 81.667 78.292 69 78.292 53.374 65.625 25.082 50 25.082zm0 35.816a7.525 7.525 0 1 1 0-15.05 7.525 7.525 0 0 1 0 15.05zm0-1.421a6.11 6.11 0 0 1-6.102-6.103c0-3.364 2.737-6.101 6.102-6.101s6.102 2.737 6.102 6.101A6.11 6.11 0 0 1 50 59.477zm0-11.204a5.108 5.108 0 0 0-5.102 5.101A5.109 5.109 0 0 0 50 58.477a5.108 5.108 0 0 0 5.102-5.103A5.108 5.108 0 0 0 50 48.273z"/></svg>