<svg xmlns="http://www.w3.org/2000/svg" width="100" height="100"><path fill="#FFA518" d="M67.75 0H17.833a5 5 0 0 0-5 5v90a5 5 0 0 0 5 5h65.333a5 5 0 0 0 5-5V20.417L67.75 0z"/><path fill="#FFF" d="M67.75 15.417a5 5 0 0 0 5 5h15.417L67.75 0v15.417z" opacity=".3"/><path fill="#FFF" d="M55.069 70.077l2.745 1.961-.449.07.449.324c-4.38.707-7.693.977-10.155.958-7.308.035-7.601-2.335-6.106-3.526.342-.439.921-.8 1.565-.96-.004 3.132 7.25 1.955 11.951 1.173zm.981-5.486l2.349 1.567c-5.094 1.764-8.218 1.867-10.998 1.849-7.457.03-8.469-2.096-7.071-3.059.212-.335.644-.607 1.216-.749.787 3.134 7.056 1.569 14.504.392zm4.312 2.742s2.389-1.54 4.187-3.275c.728-.756 1.307-1.526 1.496-2.21.982-3.529-4.508-3.529-4.508-3.529.386-.139 7.445-2.942 6.955 2.593.132 2.6-2.391 5.992-8.008 6.731-.173.029-.268-.078-.122-.31zm.782-26.65l-.514.421-.021.105.533-.132c-1.445 1.442-7.693 4.25-7.923 7.708l.083.52c.493 1.975 3.003 3.403 2.844 5.559.1 1.349-.809 2.97-4.021 5.22l.135-.379c-.168.126-.342.249-.528.377l1.177-3.331c.784-2.352-3.136-3.136-3.136-6.271 0-2.166 1.021-3.887 2.442-5.232 3.184-3.358 8.929-4.565 8.929-4.565zm-6.271-10.191c1.358 1.509 1.872 2.961 1.819 4.35.238 6.011-10.476 10.905-10.636 14.463.137 3.149 3.363 7.871 4.118 8.622l-.842-.689.842 1.079s-.458-.349-1.135-.938c.321.451.587.782.742.938 0 0-6.662-5.094-6.662-9.014 0-1.528.787-3.28 3.141-5.573 1.298-1.331 3.136-2.847 5.678-4.617.316-.219.6-.449.858-.689 2.938-3.168 1.689-7.541 1.689-7.541.193.214.368.426.528.635a6.407 6.407 0 0 0-.135-.635l.112.13-.117-.521zM43.899 57.929l-1.438.563c.638-.112 1.047-.172 1.047-.172-.109.042-.217.081-.324.124l.714-.124c-2.193.824-4.124 1.647-4.531 2.235.695.731 6.143.707 21.581-1.058l-.886.446c.163-.019.328-.037.4 0l.486-.054s-4.473 2.885-15.645 2.838a72.05 72.05 0 0 1-6.501-.291c-3.947-.633-4.445-1.345-3.466-1.993.626-1.323 8.563-2.514 8.563-2.514zM38.411 72.82l-.661.395c.091-.002.181-.002.242.012l.421-.014s-1.968 1.033-2.23 1.984c.191.6 1.36 1.094 4.584 1.152 21.162.393 25.866-2.744 25.866-2.744l-.663.719.663-.326c-2.459 3.073-7.808 4.218-17.562 4.192-2.782.002-5.931.295-9.481.121-8.469-.426-9.618-2.154-8.141-3.296.791-1.132 4.513-2.195 6.962-2.195zm31.356 3.922c-2.529 3.612-10.002 4.952-16.483 4.925-7.718.017-14.873-1.007-14.873-1.401 0 0 18.814 1.766 31.356-3.524z"/></svg>