<svg version="1.1" xmlns="http://www.w3.org/2000/svg" xmlns:xlink="http://www.w3.org/1999/xlink" width="100px" height="100px" viewBox="0 0 100 100" xml:space="preserve">
<path fill="#FFA518" d="M67.75,0H17.833c-2.761,0-5,2.239-5,5v90c0,2.761,2.239,5,5,5h65.333c2.761,0,5-2.239,5-5V20.417L67.75,0z"
	/>
<path opacity="0.3" fill="#FFFFFF" d="M67.75,15.417c0,2.761,2.239,5,5,5h15.417L67.75,0V15.417z"/>
<path fill="#FFFFFF" d="M55.069,70.077l2.745,1.961l-0.449,0.07l0.449,0.324c-4.38,0.707-7.693,0.977-10.155,0.958
	c-7.308,0.035-7.601-2.335-6.106-3.526c0.342-0.439,0.921-0.8,1.565-0.96C43.114,72.036,50.368,70.859,55.069,70.077z M56.05,64.591
	l2.349,1.567c-5.094,1.764-8.218,1.867-10.998,1.849c-7.457,0.03-8.469-2.096-7.071-3.059c0.212-0.335,0.644-0.607,1.216-0.749
	C42.333,67.333,48.602,65.768,56.05,64.591z M60.362,67.333c0,0,2.389-1.54,4.187-3.275c0.728-0.756,1.307-1.526,1.496-2.21
	c0.982-3.529-4.508-3.529-4.508-3.529c0.386-0.139,7.445-2.942,6.955,2.593c0.132,2.6-2.391,5.992-8.008,6.731
	C60.311,67.672,60.216,67.565,60.362,67.333z M61.144,40.683l-0.514,0.421l-0.021,0.105l0.533-0.132
	c-1.445,1.442-7.693,4.25-7.923,7.708l0.083,0.52c0.493,1.975,3.003,3.403,2.844,5.559c0.1,1.349-0.809,2.97-4.021,5.22l0.135-0.379
	c-0.168,0.126-0.342,0.249-0.528,0.377l1.177-3.331c0.784-2.352-3.136-3.136-3.136-6.271c0-2.166,1.021-3.887,2.442-5.232
	C55.399,41.89,61.144,40.683,61.144,40.683z M54.873,30.492c1.358,1.509,1.872,2.961,1.819,4.35
	c0.238,6.011-10.476,10.905-10.636,14.463c0.137,3.149,3.363,7.871,4.118,8.622l-0.842-0.689l0.842,1.079
	c0,0-0.458-0.349-1.135-0.938c0.321,0.451,0.587,0.782,0.742,0.938c0,0-6.662-5.094-6.662-9.014c0-1.528,0.787-3.28,3.141-5.573
	c1.298-1.331,3.136-2.847,5.678-4.617c0.316-0.219,0.6-0.449,0.858-0.689c2.938-3.168,1.689-7.541,1.689-7.541
	c0.193,0.214,0.368,0.426,0.528,0.635c-0.068-0.402-0.135-0.635-0.135-0.635l0.112,0.13L54.873,30.492z M43.899,57.929l-1.438,0.563
	c0.638-0.112,1.047-0.172,1.047-0.172c-0.109,0.042-0.217,0.081-0.324,0.124l0.714-0.124c-2.193,0.824-4.124,1.647-4.531,2.235
	c0.695,0.731,6.143,0.707,21.581-1.058l-0.886,0.446c0.163-0.019,0.328-0.037,0.4,0l0.486-0.054c0,0-4.473,2.885-15.645,2.838
	c-1.952,0.005-4.118-0.081-6.501-0.291c-3.947-0.633-4.445-1.345-3.466-1.993C35.962,59.12,43.899,57.929,43.899,57.929z
	 M38.411,72.82l-0.661,0.395c0.091-0.002,0.181-0.002,0.242,0.012l0.421-0.014c0,0-1.968,1.033-2.23,1.984
	c0.191,0.6,1.36,1.094,4.584,1.152c21.162,0.393,25.866-2.744,25.866-2.744l-0.663,0.719l0.663-0.326
	c-2.459,3.073-7.808,4.218-17.562,4.192c-2.782,0.002-5.931,0.295-9.481,0.121c-8.469-0.426-9.618-2.154-8.141-3.296
	C32.24,73.883,35.962,72.82,38.411,72.82z M69.767,76.742c-2.529,3.612-10.002,4.952-16.483,4.925
	c-7.718,0.017-14.873-1.007-14.873-1.401C38.411,80.266,57.225,82.032,69.767,76.742z"/>
</svg>
