<svg xmlns="http://www.w3.org/2000/svg" width="100" height="100"><path fill="#E54B37" d="M67.75 0H17.833a5 5 0 0 0-5 5v90a5 5 0 0 0 5 5h65.333a5 5 0 0 0 5-5V20.417L67.75 0z"/><path fill="#FFF" d="M67.75 15.417a5 5 0 0 0 5 5h15.417L67.75 0v15.417z" opacity=".3"/><path fill="#FFF" d="M46.724 54.81h4.577v12.826c0 5.781-2.77 7.798-7.226 7.798-1.054 0-2.439-.18-3.342-.482l.512-3.704a7.543 7.543 0 0 0 2.348.361c1.927 0 3.131-.873 3.131-4.035V54.81zm8.549 15.565c1.234.633 3.131 1.265 5.088 1.265 2.108 0 3.221-.873 3.221-2.198 0-1.264-.964-1.987-3.402-2.86-3.372-1.174-5.57-3.041-5.57-5.992 0-3.462 2.89-6.112 7.677-6.112 2.288 0 3.974.482 5.179 1.024l-1.024 3.704a9.65 9.65 0 0 0-4.245-.964c-1.987 0-2.951.904-2.951 1.957 0 1.295 1.144 1.867 3.763 2.86 3.583 1.325 5.269 3.191 5.269 6.052 0 3.402-2.62 6.292-8.189 6.292-2.318 0-4.607-.602-5.751-1.234l.935-3.794z"/><path fill="#FFF" d="M67.248 81.667H32.606a6.878 6.878 0 0 1-6.871-6.871V40.154a6.878 6.878 0 0 1 6.871-6.871h34.642a6.878 6.878 0 0 1 6.871 6.871v34.642a6.88 6.88 0 0 1-6.871 6.871zM32.606 35.573a4.586 4.586 0 0 0-4.581 4.581v34.642a4.586 4.586 0 0 0 4.581 4.581h34.642a4.586 4.586 0 0 0 4.581-4.581V40.154a4.586 4.586 0 0 0-4.581-4.581H32.606z"/></svg>