<svg version="1.1" xmlns="http://www.w3.org/2000/svg" xmlns:xlink="http://www.w3.org/1999/xlink" width="100px" height="100px" viewBox="0 0 100 100" xml:space="preserve">
<path fill="#E54B37" d="M67.75,0H17.833c-2.761,0-5,2.239-5,5v90c0,2.761,2.239,5,5,5h65.333c2.761,0,5-2.239,5-5V20.417L67.75,0z"
	/>
<path opacity="0.3" fill="#FFFFFF" d="M67.75,15.417c0,2.761,2.239,5,5,5h15.417L67.75,0V15.417z"/>
<g>
	<path fill="#FFFFFF" d="M46.724,54.81h4.577v12.826c0,5.781-2.77,7.798-7.226,7.798c-1.054,0-2.439-0.18-3.342-0.482l0.512-3.704
		c0.633,0.211,1.445,0.361,2.348,0.361c1.927,0,3.131-0.873,3.131-4.035L46.724,54.81L46.724,54.81z"/>
	<path fill="#FFFFFF" d="M55.273,70.375c1.234,0.633,3.131,1.265,5.088,1.265c2.108,0,3.221-0.873,3.221-2.198
		c0-1.264-0.964-1.987-3.402-2.86c-3.372-1.174-5.57-3.041-5.57-5.992c0-3.462,2.89-6.112,7.677-6.112
		c2.288,0,3.974,0.482,5.179,1.024l-1.024,3.704c-0.813-0.391-2.258-0.964-4.245-0.964c-1.987,0-2.951,0.904-2.951,1.957
		c0,1.295,1.144,1.867,3.763,2.86c3.583,1.325,5.269,3.191,5.269,6.052c0,3.402-2.62,6.292-8.189,6.292
		c-2.318,0-4.607-0.602-5.751-1.234L55.273,70.375z"/>
</g>
<g>
	<path fill="#FFFFFF" d="M67.248,81.667H32.606c-3.789,0-6.871-3.082-6.871-6.871V40.154c0-3.789,3.082-6.871,6.871-6.871h34.642
		c3.789,0,6.871,3.082,6.871,6.871v34.642C74.119,78.584,71.036,81.667,67.248,81.667z M32.606,35.573
		c-2.526,0-4.581,2.055-4.581,4.581v34.642c0,2.526,2.055,4.581,4.581,4.581h34.642c2.526,0,4.581-2.055,4.581-4.581V40.154
		c0-2.526-2.055-4.581-4.581-4.581H32.606z"/>
</g>
</svg>
