<svg xmlns="http://www.w3.org/2000/svg" width="100" height="100"><path fill="#231F20" d="M67.75 0H17.833a5 5 0 0 0-5 5v90a5 5 0 0 0 5 5h65.333a5 5 0 0 0 5-5V20.417L67.75 0z"/><path fill="#FFF" d="M67.75 15.417a5 5 0 0 0 5 5h15.417L67.75 0v15.417z" opacity=".3"/><path fill="#FFF" d="M76.672 39.89H24.943a4.364 4.364 0 0 0-4.36 4.36v29.061a4.36 4.36 0 0 0 4.36 4.355h51.73a4.36 4.36 0 0 0 4.36-4.355V44.25a4.363 4.363 0 0 0-4.361-4.36zM54.586 70.105l-7.556.01V58.78l-5.667 7.264-5.667-7.264v11.334H28.14V47.446h7.556l5.667 7.556 5.667-7.556 7.556-.007v22.666zm11.279 1.888l-9.39-13.213h5.667V47.446h7.554V58.78h5.667l-9.498 13.213z"/></svg>