<svg version="1.1" xmlns="http://www.w3.org/2000/svg" xmlns:xlink="http://www.w3.org/1999/xlink" width="100px" height="100px" viewBox="0 0 100 100" xml:space="preserve">
<path fill="#231F20" d="M67.75,0H17.833c-2.761,0-5,2.239-5,5v90c0,2.761,2.239,5,5,5h65.333c2.761,0,5-2.239,5-5V20.417L67.75,0z"
	/>
<path opacity="0.3" fill="#FFFFFF" d="M67.75,15.417c0,2.761,2.239,5,5,5h15.417L67.75,0V15.417z"/>
<path fill="#FFFFFF" d="M76.672,39.89H24.943c-2.405,0-4.36,1.955-4.36,4.36v29.061c0,2.403,1.955,4.355,4.36,4.355h51.73
	c2.405,0,4.36-1.952,4.36-4.355V44.25C81.033,41.844,79.078,39.89,76.672,39.89z M54.586,70.105l-7.556,0.01V58.78l-5.667,7.264
	l-5.667-7.264v11.334h-7.556V47.446h7.556l5.667,7.556l5.667-7.556l7.556-0.007V70.105z M65.865,71.993L56.475,58.78h5.667V47.446
	h7.554V58.78h5.667L65.865,71.993L65.865,71.993z"/>
</svg>
