<svg xmlns="http://www.w3.org/2000/svg" width="100" height="100"><path fill="#C0A574" d="M67.75 0H17.833a5 5 0 0 0-5 5v90a5 5 0 0 0 5 5h65.333a5 5 0 0 0 5-5V20.417L67.75 0z"/><path fill="#FFF" d="M67.75 15.417a5 5 0 0 0 5 5h15.417L67.75 0v15.417z" opacity=".3"/><path fill="#FFF" d="M53.731 43.28l-1.46-11.573h16.862l7.747 11.621-23.149-.048zm23.483.993v.055l-23.428-.048v9.781h-6.673v-9.794l-23.334-.048v-.055h-.121l1.879 35.7h49.379l2.431-35.589-.133-.002zm-30.01-1.007l1.858-11.56H30.987L24.08 43.218l23.124.048z"/></svg>