<svg version="1.1" xmlns="http://www.w3.org/2000/svg" xmlns:xlink="http://www.w3.org/1999/xlink" width="100px" height="100px" viewBox="0 0 100 100" xml:space="preserve">
<path fill="#C0A574" d="M67.75,0H17.833c-2.761,0-5,2.239-5,5v90c0,2.761,2.239,5,5,5h65.333c2.761,0,5-2.239,5-5V20.417L67.75,0z"
	/>
<path opacity="0.3" fill="#FFFFFF" d="M67.75,15.417c0,2.761,2.239,5,5,5h15.417L67.75,0V15.417z"/>
<path fill="#FFFFFF" d="M53.731,43.28l-1.46-11.573h16.862l7.747,11.621L53.731,43.28z M77.214,44.273l0,0.055L53.786,44.28v9.781
	h-6.673v-9.794l-23.334-0.048l0-0.055l-0.121,0l1.879,35.7h49.379l2.431-35.589L77.214,44.273z M47.204,43.266l1.858-11.56H30.987
	L24.08,43.218L47.204,43.266z"/>
</svg>
