<svg version="1.1" xmlns="http://www.w3.org/2000/svg" xmlns:xlink="http://www.w3.org/1999/xlink" width="100px" height="100px" viewBox="0 0 100 100" xml:space="preserve">
<path fill="#FE0000" d="M67.75,0H17.833c-2.761,0-5,2.239-5,5v90c0,2.761,2.239,5,5,5h65.333c2.761,0,5-2.239,5-5V20.417L67.75,0z"
	/>
<path opacity="0.5" fill="#FFFFFF" d="M67.75,15.417c0,2.761,2.239,5,5,5h15.417L67.75,0V15.417z"/>
<path fill="#FFFFFF" d="M36.574,68.817c-6.444,2.754-7.219,9.91-5.757,8.31c8.691-9.728,13.56-17.636,16.266-23.604
	c-6.003-10.673-5.666-23.799,1.319-21.115c5.435,2.084,2.849,7.124,2.849,7.124s-0.728-6.162-4.116-5.197
	c-0.814,0.205-1.792,7.967,1.501,15.369c2.22-6.224,1.765-9.456,1.765-9.456s5.623,1.464,0.511,13.454
	c0.631,0.872,1.315,1.705,2.111,2.497c1.17,1.34,2.348,2.493,3.5,3.496c3.446-1.245,6.843-2.144,9.508-2.144
	c8.447,0,8.236,8.503,8.236,8.503c-1.889-4.287-7.636-4.664-13.907-3.541c7.316,4.453,13.281,3.204,13.281,3.204
	c-0.62,5.156-8.773,5.619-17.99-2.133c-5.03,1.356-9.867,3.287-12.828,4.564c-7.665,11.707-14.432,17.436-15.887,10.547
	C25.098,69.954,36.574,68.817,36.574,68.817z M50.592,58.567L49.36,57.02l-1.263,2.369c-1.06,1.892-2.125,3.709-3.188,5.429
	c2.197-1.1,5.034-2.47,8.037-3.729C52.17,60.313,51.38,59.466,50.592,58.567z"/>
</svg>
