<svg xmlns="http://www.w3.org/2000/svg" width="100" height="100"><path fill="#FE0000" d="M67.75 0H17.833a5 5 0 0 0-5 5v90a5 5 0 0 0 5 5h65.333a5 5 0 0 0 5-5V20.417L67.75 0z"/><path fill="#FFF" d="M67.75 15.417a5 5 0 0 0 5 5h15.417L67.75 0v15.417z" opacity=".5"/><path fill="#FFF" d="M36.574 68.817c-6.444 2.754-7.219 9.91-5.757 8.31 8.691-9.728 13.56-17.636 16.266-23.604-6.003-10.673-5.666-23.799 1.319-21.115 5.435 2.084 2.849 7.124 2.849 7.124s-.728-6.162-4.116-5.197c-.814.205-1.792 7.967 1.501 15.369 2.22-6.224 1.765-9.456 1.765-9.456s5.623 1.464.511 13.454a20.091 20.091 0 0 0 2.111 2.497 36.13 36.13 0 0 0 3.5 3.496c3.446-1.245 6.843-2.144 9.508-2.144 8.447 0 8.236 8.503 8.236 8.503-1.889-4.287-7.636-4.664-13.907-3.541 7.316 4.453 13.281 3.204 13.281 3.204-.62 5.156-8.773 5.619-17.99-2.133-5.03 1.356-9.867 3.287-12.828 4.564-7.665 11.707-14.432 17.436-15.887 10.547-1.838-8.741 9.638-9.878 9.638-9.878zm14.018-10.25L49.36 57.02l-1.263 2.369a147.297 147.297 0 0 1-3.188 5.429c2.197-1.1 5.034-2.47 8.037-3.729a52.778 52.778 0 0 1-2.354-2.522z"/></svg>