<svg xmlns="http://www.w3.org/2000/svg" width="100" height="100"><path fill="#2980B9" d="M67.75 0H17.833a5 5 0 0 0-5 5v90a5 5 0 0 0 5 5h65.333a5 5 0 0 0 5-5V20.417L67.75 0z"/><path fill="#FFF" d="M67.75 15.417a5 5 0 0 0 5 5h15.417L67.75 0v15.417z" opacity=".4"/><path fill="#FFF" d="M34.873 44.474H23.742l-4.81 24.368h5.715l1.206-6.315h5.413c5.112.301 10.827-3.912 10.827-11.129-.001-4.213-2.404-6.623-7.22-6.924zm-4.21 13.543h-3.61l1.505-9.026h3.909c2.105 0 3.613.904 3.613 2.706-.306 5.114-2.709 6.016-5.417 6.32zm24.362-13.543h-5.413l1.203-6.315H45.1l-4.81 24.365h5.715l2.705-13.535h4.514c2.105 0 2.105.904 1.804 2.409l-2.105 11.128h6.016l2.103-12.334c.6-3.005-1.206-5.412-6.017-5.718zm20.154 0H64.051l-4.81 24.365h5.712l1.203-6.315h5.416c5.114.301 10.829-3.912 10.829-11.126.002-4.213-2.408-6.623-7.222-6.924zm-4.212 13.543H67.36l1.502-9.026h3.911c2.108 0 3.613.904 3.613 2.706-.301 5.114-2.711 6.016-5.419 6.32z"/></svg>