<svg version="1.1" xmlns="http://www.w3.org/2000/svg" xmlns:xlink="http://www.w3.org/1999/xlink" width="100px" height="100px" viewBox="0 0 100 100" xml:space="preserve">
<path fill="#FF543D" d="M67.75,0H17.833c-2.761,0-5,2.239-5,5v90c0,2.761,2.239,5,5,5h65.333c2.761,0,5-2.239,5-5V20.417L67.75,0z"
	/>
<path opacity="0.4" fill="#FFFFFF" d="M67.75,15.417c0,2.761,2.239,5,5,5h15.417L67.75,0V15.417z"/>
<path fill="#FFFFFF" d="M47.919,55.951H65.08c0,9.477-7.683,17.161-17.161,17.161s-17.161-7.683-17.161-17.161
	S38.442,38.79,47.919,38.79V55.951z M50.968,52.903h17.161c0-9.477-7.683-17.161-17.161-17.161V52.903z M75.239,30.137H24.761v1.92
	h50.478V30.137z M75.239,77.871H24.761v1.92h21.573v1.875h7.133v-1.875h21.772V77.871z"/>
</svg>
