<svg xmlns="http://www.w3.org/2000/svg" width="100" height="100"><path fill="#FF543D" d="M67.75 0H17.833a5 5 0 0 0-5 5v90a5 5 0 0 0 5 5h65.333a5 5 0 0 0 5-5V20.417L67.75 0z"/><path fill="#FFF" d="M67.75 15.417a5 5 0 0 0 5 5h15.417L67.75 0v15.417z" opacity=".4"/><path fill="#FFF" d="M47.919 55.951H65.08c0 9.477-7.683 17.161-17.161 17.161s-17.161-7.683-17.161-17.161S38.442 38.79 47.919 38.79v17.161zm3.049-3.048h17.161c0-9.477-7.683-17.161-17.161-17.161v17.161zm24.271-22.766H24.761v1.92h50.478v-1.92zm0 47.734H24.761v1.92h21.573v1.875h7.133v-1.875h21.772v-1.92z"/></svg>