<svg version="1.1" xmlns="http://www.w3.org/2000/svg" xmlns:xlink="http://www.w3.org/1999/xlink" width="100px" height="100px" viewBox="0 0 100 100" xml:space="preserve">
<path fill="#FFC432" d="M67.75,0H17.833c-2.761,0-5,2.239-5,5v90c0,2.761,2.239,5,5,5h65.333c2.761,0,5-2.239,5-5V20.417L67.75,0z"
	/>
<path opacity="0.4" fill="#FFFFFF" d="M67.75,15.417c0,2.761,2.239,5,5,5h15.417L67.75,0V15.417z"/>
<path fill="#FFFFFF" d="M44.092,56.005h11.749c3.273,0,5.885-2.692,5.885-5.979V38.823c0-3.189-2.69-5.585-5.885-6.115
	c-2.022-0.337-4.118-0.491-6.127-0.481c-2.014,0.01-3.933,0.181-5.622,0.481c-4.978,0.878-5.887,2.72-5.887,6.115v4.484h11.766
	v1.496H33.79c-3.419,0-6.415,2.054-7.352,5.965c-1.081,4.484-1.126,7.278,0,11.959c0.835,3.483,2.835,5.965,6.254,5.965h4.044
	v-5.375c0-3.883,3.362-7.309,7.349-7.309L44.092,56.005z M43.351,40.319c-1.221,0-2.211-1.001-2.211-2.234
	c0-1.241,0.986-2.25,2.211-2.25c1.214,0,2.207,1.009,2.207,2.25C45.558,39.32,44.565,40.319,43.351,40.319z M73.487,50.765
	c-0.844-3.402-2.457-5.965-5.883-5.965h-4.416v5.223c0,4.05-3.434,7.461-7.349,7.461H44.086c-3.217,0-5.88,2.753-5.88,5.977v11.202
	c0,3.189,2.771,5.063,5.88,5.979c3.725,1.095,7.296,1.292,11.753,0c2.961-0.857,5.88-2.585,5.88-5.979v-4.485H49.971v-1.493h17.636
	c3.419,0,4.691-2.385,5.883-5.967C74.715,59.035,74.664,55.493,73.487,50.765L73.487,50.765z M56.583,73.171
	c1.221,0,2.207,0.999,2.207,2.234c0,1.241-0.986,2.25-2.207,2.25c-1.216,0-2.209-1.009-2.209-2.25
	C54.374,74.17,55.364,73.171,56.583,73.171z"/>
</svg>
