<svg xmlns="http://www.w3.org/2000/svg" width="100" height="100"><path fill="#FFC432" d="M67.75 0H17.833a5 5 0 0 0-5 5v90a5 5 0 0 0 5 5h65.333a5 5 0 0 0 5-5V20.417L67.75 0z"/><path fill="#FFF" d="M67.75 15.417a5 5 0 0 0 5 5h15.417L67.75 0v15.417z" opacity=".4"/><path fill="#FFF" d="M44.092 56.005h11.749c3.273 0 5.885-2.692 5.885-5.979V38.823c0-3.189-2.69-5.585-5.885-6.115a36.567 36.567 0 0 0-6.127-.481c-2.014.01-3.933.181-5.622.481-4.978.878-5.887 2.72-5.887 6.115v4.484h11.766v1.496H33.79c-3.419 0-6.415 2.054-7.352 5.965-1.081 4.484-1.126 7.278 0 11.959.835 3.483 2.835 5.965 6.254 5.965h4.044v-5.375c0-3.883 3.362-7.309 7.349-7.309l.007-.003zm-.741-15.686c-1.221 0-2.211-1.001-2.211-2.234 0-1.241.986-2.25 2.211-2.25 1.214 0 2.207 1.009 2.207 2.25 0 1.235-.993 2.234-2.207 2.234zm30.136 10.446c-.844-3.402-2.457-5.965-5.883-5.965h-4.416v5.223c0 4.05-3.434 7.461-7.349 7.461H44.086c-3.217 0-5.88 2.753-5.88 5.977v11.202c0 3.189 2.771 5.063 5.88 5.979 3.725 1.095 7.296 1.292 11.753 0 2.961-.857 5.88-2.585 5.88-5.979v-4.485H49.971v-1.493h17.636c3.419 0 4.691-2.385 5.883-5.967 1.225-3.683 1.174-7.225-.003-11.953zM56.583 73.171c1.221 0 2.207.999 2.207 2.234 0 1.241-.986 2.25-2.207 2.25-1.216 0-2.209-1.009-2.209-2.25 0-1.235.99-2.234 2.209-2.234z"/></svg>