<svg version="1.1" xmlns="http://www.w3.org/2000/svg" xmlns:xlink="http://www.w3.org/1999/xlink" width="100px" height="100px" viewBox="0 0 100 100" xml:space="preserve">
<path fill="#CC342D" d="M67.75,0H17.833c-2.761,0-5,2.239-5,5v90c0,2.761,2.239,5,5,5h65.333c2.761,0,5-2.239,5-5V20.417L67.75,0z"
	/>
<path opacity="0.4" fill="#FFFFFF" d="M67.75,15.417c0,2.761,2.239,5,5,5h15.417L67.75,0V15.417z"/>
<path fill="#FFFFFF" d="M39.441,76.88c10.835,1.478,21.479,2.932,32.33,4.415c-3.697-6.156-7.301-12.153-10.93-18.204
	C53.725,67.674,46.676,72.218,39.441,76.88L39.441,76.88z M74.832,42.805c-0.954,1.434-1.913,2.867-2.865,4.303
	c-3.275,4.929-6.552,9.857-9.825,14.786c-0.184,0.275-0.418,0.494-0.163,0.916c3.163,5.222,6.299,10.461,9.444,15.692
	c0.498,0.828,0.997,1.65,1.641,2.443c0.634-12.7,1.272-25.398,1.907-38.098C74.925,42.831,74.876,42.816,74.832,42.805
	L74.832,42.805z M31.663,59.084c0.149,0.141,0.516,0.22,0.689,0.137c3.033-1.491,6.085-2.947,9.052-4.562
	c0.969-0.526,1.711-1.468,2.545-2.233c2.761-2.531,5.516-5.067,8.271-7.605c0.17-0.155,0.367-0.306,0.467-0.502
	c0.991-1.935,1.962-3.878,2.969-5.877c-1.201-0.453-2.337-0.893-3.489-1.293c-0.155-0.053-0.402,0.053-0.571,0.147
	c-2.667,1.488-5.384,2.9-7.967,4.525c-1.288,0.812-2.343,2.011-3.487,3.053c-1.845,1.683-3.685,3.371-5.502,5.084
	c-0.484,0.455-0.921,0.973-1.299,1.519c-1.242,1.809-2.447,3.646-3.707,5.53C30.338,57.739,30.98,58.437,31.663,59.084
	L31.663,59.084z M42.748,56.612c-1.509,6.374-3.01,12.712-4.56,19.26c7.266-4.682,14.366-9.26,21.418-13.801
	C53.997,60.254,48.403,58.441,42.748,56.612L42.748,56.612z M72.976,42.865c-6.14,1.026-12.133,2.027-18.204,3.04
	c2.068,5.031,4.092,9.96,6.179,15.029c4.033-6.059,7.986-11.995,12.029-18.068h-0.004L72.976,42.865L72.976,42.865z M43.001,55.307
	c5.528,1.796,10.947,3.557,16.526,5.365c-2.07-5.045-4.071-9.915-6.113-14.884C49.937,48.967,46.513,52.097,43.001,55.307z
	 M31.892,62.801c-1.962,4.688-3.856,9.215-5.784,13.826c3.705-0.11,7.301-0.218,11.013-0.328
	C35.379,71.798,33.67,67.385,31.892,62.801L31.892,62.801z M37.253,73.095c0.045-0.008,0.089-0.02,0.137-0.03
	c1.321-5.497,2.665-10.961,4.015-16.675c-3.012,1.566-5.885,3.059-8.836,4.592C34.075,64.899,35.68,69.03,37.253,73.095
	L37.253,73.095z M70.755,41.974c-1.76-0.465-3.52-0.934-5.276-1.397c-2.531-0.665-5.064-1.321-7.59-1.992
	c-0.316-0.086-0.544-0.141-0.73,0.24c-0.893,1.831-1.815,3.648-2.722,5.471c-0.026,0.055-0.023,0.128-0.043,0.269
	c5.477-0.828,10.918-1.654,16.356-2.477C70.753,42.05,70.753,42.013,70.755,41.974z M60.551,37.81
	c4.723,1.307,9.446,2.612,14.336,3.966c-0.824-2.343-1.585-4.517-2.369-6.752c-4.015,0.891-7.979,1.77-11.946,2.649
	C60.565,37.721,60.559,37.764,60.551,37.81L60.551,37.81z M38.47,77.934c-1.778-0.204-3.599-0.014-5.4,0.014
	c-1.48,0.026-2.959,0.082-4.438,0.128c-0.153,0.002-0.304,0.035-0.456,0.198c12.229,1.132,24.461,2.261,36.687,3.393
	c0.008-0.055,0.016-0.11,0.024-0.165c-3.92-0.534-7.839-1.068-11.762-1.605C48.244,79.233,43.367,78.501,38.47,77.934L38.47,77.934z
	 M26.35,72.407c1.576-3.656,3.144-7.318,4.729-10.971c0.159-0.365,0.147-0.613-0.165-0.91c-0.662-0.63-1.274-1.309-1.998-2.06
	c-0.977,4.829-1.931,9.535-2.886,14.244c0.037,0.016,0.072,0.035,0.106,0.051c0.073-0.116,0.163-0.229,0.216-0.353H26.35V72.407z
	 M57.413,36.844c2.657-0.685,5.353-1.224,8.032-1.821c0.173-0.039,0.343-0.096,0.514-0.145c-0.008-0.045-0.016-0.088-0.026-0.131
	c-3.774,0.508-7.549,1.018-11.516,1.55C55.497,36.772,56.329,37.123,57.413,36.844L57.413,36.844z"/>
</svg>
