<svg xmlns="http://www.w3.org/2000/svg" width="100" height="100"><path fill="#CC342D" d="M67.75 0H17.833a5 5 0 0 0-5 5v90a5 5 0 0 0 5 5h65.333a5 5 0 0 0 5-5V20.417L67.75 0z"/><path fill="#FFF" d="M67.75 15.417a5 5 0 0 0 5 5h15.417L67.75 0v15.417z" opacity=".4"/><path fill="#FFF" d="M39.441 76.88c10.835 1.478 21.479 2.932 32.33 4.415-3.697-6.156-7.301-12.153-10.93-18.204-7.116 4.583-14.165 9.127-21.4 13.789zm35.391-34.075c-.954 1.434-1.913 2.867-2.865 4.303-3.275 4.929-6.552 9.857-9.825 14.786-.184.275-.418.494-.163.916 3.163 5.222 6.299 10.461 9.444 15.692.498.828.997 1.65 1.641 2.443.634-12.7 1.272-25.398 1.907-38.098a1.67 1.67 0 0 0-.139-.042zM31.663 59.084c.149.141.516.22.689.137 3.033-1.491 6.085-2.947 9.052-4.562.969-.526 1.711-1.468 2.545-2.233 2.761-2.531 5.516-5.067 8.271-7.605.17-.155.367-.306.467-.502.991-1.935 1.962-3.878 2.969-5.877-1.201-.453-2.337-.893-3.489-1.293-.155-.053-.402.053-.571.147-2.667 1.488-5.384 2.9-7.967 4.525-1.288.812-2.343 2.011-3.487 3.053a455.86 455.86 0 0 0-5.502 5.084 9.558 9.558 0 0 0-1.299 1.519c-1.242 1.809-2.447 3.646-3.707 5.53.704.732 1.346 1.43 2.029 2.077zm11.085-2.472l-4.56 19.26c7.266-4.682 14.366-9.26 21.418-13.801-5.609-1.817-11.203-3.63-16.858-5.459zm30.228-13.747a77923.98 77923.98 0 0 1-18.204 3.04c2.068 5.031 4.092 9.96 6.179 15.029L72.98 42.866h-.004v-.001zM43.001 55.307c5.528 1.796 10.947 3.557 16.526 5.365-2.07-5.045-4.071-9.915-6.113-14.884l-10.413 9.519zm-11.109 7.494l-5.784 13.826 11.013-.328c-1.742-4.501-3.451-8.914-5.229-13.498zm5.361 10.294c.045-.008.089-.02.137-.03 1.321-5.497 2.665-10.961 4.015-16.675l-8.836 4.592c1.506 3.917 3.111 8.048 4.684 12.113zm33.502-31.121c-1.76-.465-3.52-.934-5.276-1.397-2.531-.665-5.064-1.321-7.59-1.992-.316-.086-.544-.141-.73.24-.893 1.831-1.815 3.648-2.722 5.471-.026.055-.023.128-.043.269 5.477-.828 10.918-1.654 16.356-2.477.003-.038.003-.075.005-.114zM60.551 37.81c4.723 1.307 9.446 2.612 14.336 3.966-.824-2.343-1.585-4.517-2.369-6.752l-11.946 2.649-.021.137zM38.47 77.934c-1.778-.204-3.599-.014-5.4.014-1.48.026-2.959.082-4.438.128a.58.58 0 0 0-.456.198c12.229 1.132 24.461 2.261 36.687 3.393l.024-.165c-3.92-.534-7.839-1.068-11.762-1.605-4.881-.664-9.758-1.396-14.655-1.963zm-12.12-5.527c1.576-3.656 3.144-7.318 4.729-10.971.159-.365.147-.613-.165-.91-.662-.63-1.274-1.309-1.998-2.06-.977 4.829-1.931 9.535-2.886 14.244.037.016.072.035.106.051.073-.116.163-.229.216-.353h-.002v-.001zm31.063-35.563c2.657-.685 5.353-1.224 8.032-1.821.173-.039.343-.096.514-.145a2.53 2.53 0 0 0-.026-.131c-3.774.508-7.549 1.018-11.516 1.55 1.08.475 1.912.826 2.996.547z"/></svg>