<svg version="1.1" xmlns="http://www.w3.org/2000/svg" xmlns:xlink="http://www.w3.org/1999/xlink" width="100px" height="100px" viewBox="0 0 100 100" xml:space="preserve">
<path opacity="0.9" d="M67.75,0H17.833c-2.761,0-5,2.239-5,5v90c0,2.761,2.239,5,5,5h65.333c2.761,0,5-2.239,5-5V20.417L67.75,0z"/>
<path opacity="0.4" fill="#FFFFFF" d="M67.75,15.417c0,2.761,2.239,5,5,5h15.417L67.75,0V15.417z"/>
<path opacity="0.9" fill="#00FF00" d="M77.208,66.371h-27.04v-4.436h27.04V66.371z M48.651,54.552L23.679,65.997v-5.514
	l19.301-8.272v-0.105l-19.301-8.271V38.32l24.972,11.446V54.552z"/>
</svg>
