<svg xmlns="http://www.w3.org/2000/svg" width="100" height="100"><path fill="#2DB965" d="M67.75 0H17.833a5 5 0 0 0-5 5v90a5 5 0 0 0 5 5h65.333a5 5 0 0 0 5-5V20.417L67.75 0z" opacity=".9"/><path fill="#FFF" d="M67.75 15.417a5 5 0 0 0 5 5h15.417L67.75 0v15.417z" opacity=".4"/><path fill="#FFF" d="M74 81.467H27.25V30.962H74v50.505zm-31.354-2.253h29.101v-9.763H42.646v9.763zm-13.143 0h10.89v-9.763h-10.89v9.763zM42.646 67.01h29.101v-9.575H42.646v9.575zm-13.143 0h10.89v-9.575h-10.89v9.575zm13.143-12.016h29.101v-9.575H42.646v9.575zm-13.143 0h10.89v-9.575h-10.89v9.575zm13.143-12.016h29.101v-9.763H42.646v9.763zm-13.143 0h10.89v-9.763h-10.89v9.763z"/></svg>