<svg version="1.1" xmlns="http://www.w3.org/2000/svg" xmlns:xlink="http://www.w3.org/1999/xlink" width="100px" height="100px" viewBox="0 0 100 100" xml:space="preserve">
<path opacity="0.9" fill="#315A9F" d="M67.75,0H17.833c-2.761,0-5,2.239-5,5v90c0,2.761,2.239,5,5,5h65.333c2.761,0,5-2.239,5-5
	V20.417L67.75,0z"/>
<path opacity="0.4" fill="#FFFFFF" d="M67.75,15.417c0,2.761,2.239,5,5,5h15.417L67.75,0V15.417z"/>
<path fill="#FFFFFF" d="M54.735,59.318c-0.67-0.882-1.598-1.325-2.789-1.325l-0.742,0.064v-0.033
	c-0.874,0.145-1.596,0.576-2.167,1.285c-0.711,0.891-1.066,2.071-1.066,3.544c0,1.486,0.353,2.669,1.055,3.542
	c0.58,0.707,1.304,1.128,2.178,1.259v0.024l0.657,0.05c1.2,0,2.143-0.42,2.831-1.261c0.699-0.856,1.048-2.029,1.048-3.523
	C55.738,61.396,55.404,60.188,54.735,59.318z M51.203,48.481c-12.983,0-23.507-2.785-23.507-6.222v33.185
	c0,3.437,10.524,6.222,23.507,6.222s23.507-2.785,23.507-6.222V42.264C74.696,45.699,64.179,48.481,51.203,48.481z M42.163,68.364
	c-0.329,0.583-0.777,1.053-1.342,1.417c-0.565,0.361-1.221,0.622-1.97,0.782c-0.749,0.157-1.539,0.237-2.371,0.237
	c-0.856,0-1.668-0.07-2.439-0.213c-0.771-0.14-1.436-0.35-2.001-0.631v-3.363c0.622,0.514,1.301,0.904,2.032,1.161
	c0.731,0.258,1.469,0.387,2.214,0.387l1.145-0.125l0.816-0.344c0.219-0.145,0.383-0.32,0.49-0.514l0.16-0.645
	c0-0.3-0.085-0.569-0.256-0.803l-0.696-0.657l-1.048-0.58l-1.309-0.569c-1.193-0.499-2.082-1.112-2.669-1.837
	c-0.587-0.723-0.875-1.596-0.875-2.621c0-0.801,0.16-1.491,0.484-2.065c0.324-0.578,0.766-1.051,1.325-1.425
	s1.204-0.648,1.942-0.823c0.735-0.175,1.513-0.263,2.336-0.263l2.143,0.142c0.624,0.094,1.197,0.241,1.723,0.44v3.177l-0.839-0.488
	l-0.932-0.35l-0.953-0.199l-0.904-0.066l-1.062,0.118l-0.81,0.332l-0.512,0.512c-0.121,0.199-0.182,0.42-0.182,0.668
	c0,0.258,0.068,0.49,0.204,0.692l0.576,0.58l0.906,0.538l1.202,0.541l1.647,0.823c0.488,0.289,0.904,0.617,1.252,0.983
	c0.346,0.365,0.611,0.782,0.797,1.25c0.184,0.469,0.276,1.016,0.276,1.638C42.658,67.06,42.492,67.783,42.163,68.364z
	 M60.606,74.965l-0.959,0.188l-1.491,0.094c-0.707,0-1.36-0.114-1.955-0.341c-0.593-0.23-1.162-0.543-1.707-0.944
	c-0.545-0.398-1.075-0.867-1.591-1.406l-1.607-1.734h-0.092v-0.026c-1.04-0.035-1.984-0.254-2.835-0.654
	c-0.867-0.41-1.609-0.959-2.229-1.653c-0.616-0.692-1.093-1.504-1.43-2.439c-0.335-0.932-0.503-1.933-0.503-3.004
	c0-2.446,0.709-4.418,2.133-5.92c1.254-1.325,2.875-2.069,4.867-2.229v0.031l0.865-0.035c2.209,0,4,0.725,5.368,2.174
	c1.375,1.436,2.062,3.332,2.062,5.692c0,1.844-0.42,3.43-1.259,4.755c-0.841,1.316-2.01,2.238-3.511,2.776l1.071,1.029l1.02,0.637
	l1.053,0.322l1.176,0.09l0.381-0.015l0.414-0.055l0.407-0.088l0.355-0.112C60.606,72.1,60.606,74.965,60.606,74.965z M71.226,70.604
	h-9.292V55.118h3.54v12.61h5.751C71.226,67.728,71.226,70.604,71.226,70.604z M51.203,29.124c-12.983,0-23.507,2.785-23.507,6.222
	v2.765c0,3.437,10.524,6.222,23.507,6.222s23.507-2.785,23.507-6.222v-2.765C74.696,31.907,64.179,29.124,51.203,29.124z
	 M51.203,37.421c-10.693,0-19.357-0.929-19.357-2.074s8.666-2.076,19.357-2.076s19.357,0.929,19.357,2.076
	C70.561,36.491,61.896,37.421,51.203,37.421z"/>
</svg>
