<svg xmlns="http://www.w3.org/2000/svg" width="100" height="100"><path fill="#315A9F" d="M67.75 0H17.833a5 5 0 0 0-5 5v90a5 5 0 0 0 5 5h65.333a5 5 0 0 0 5-5V20.417L67.75 0z" opacity=".9"/><path fill="#FFF" d="M67.75 15.417a5 5 0 0 0 5 5h15.417L67.75 0v15.417z" opacity=".4"/><path fill="#FFF" d="M54.735 59.318c-.67-.882-1.598-1.325-2.789-1.325l-.742.064v-.033c-.874.145-1.596.576-2.167 1.285-.711.891-1.066 2.071-1.066 3.544 0 1.486.353 2.669 1.055 3.542.58.707 1.304 1.128 2.178 1.259v.024l.657.05c1.2 0 2.143-.42 2.831-1.261.699-.856 1.048-2.029 1.048-3.523-.002-1.548-.336-2.756-1.005-3.626zm-3.532-10.837c-12.983 0-23.507-2.785-23.507-6.222v33.185c0 3.437 10.524 6.222 23.507 6.222s23.507-2.785 23.507-6.222v-33.18c-.014 3.435-10.531 6.217-23.507 6.217zm-9.04 19.883a4.004 4.004 0 0 1-1.342 1.417c-.565.361-1.221.622-1.97.782-.749.157-1.539.237-2.371.237-.856 0-1.668-.07-2.439-.213-.771-.14-1.436-.35-2.001-.631v-3.363a6.637 6.637 0 0 0 2.032 1.161 6.61 6.61 0 0 0 2.214.387l1.145-.125.816-.344c.219-.145.383-.32.49-.514l.16-.645c0-.3-.085-.569-.256-.803l-.696-.657-1.048-.58-1.309-.569c-1.193-.499-2.082-1.112-2.669-1.837-.587-.723-.875-1.596-.875-2.621 0-.801.16-1.491.484-2.065.324-.578.766-1.051 1.325-1.425s1.204-.648 1.942-.823a10.055 10.055 0 0 1 2.336-.263l2.143.142a8.384 8.384 0 0 1 1.723.44v3.177l-.839-.488-.932-.35-.953-.199-.904-.066-1.062.118-.81.332-.512.512c-.121.199-.182.42-.182.668 0 .258.068.49.204.692l.576.58.906.538 1.202.541 1.647.823c.488.289.904.617 1.252.983.346.365.611.782.797 1.25.184.469.276 1.016.276 1.638-.005.859-.171 1.582-.5 2.163zm18.443 6.601l-.959.188-1.491.094c-.707 0-1.36-.114-1.955-.341a7.367 7.367 0 0 1-1.707-.944 12.05 12.05 0 0 1-1.591-1.406l-1.607-1.734h-.092v-.026c-1.04-.035-1.984-.254-2.835-.654a6.91 6.91 0 0 1-2.229-1.653 7.394 7.394 0 0 1-1.43-2.439 8.814 8.814 0 0 1-.503-3.004c0-2.446.709-4.418 2.133-5.92 1.254-1.325 2.875-2.069 4.867-2.229v.031l.865-.035c2.209 0 4 .725 5.368 2.174 1.375 1.436 2.062 3.332 2.062 5.692 0 1.844-.42 3.43-1.259 4.755-.841 1.316-2.01 2.238-3.511 2.776l1.071 1.029 1.02.637 1.053.322 1.176.09.381-.015.414-.055.407-.088.355-.112c-.003.002-.003 2.867-.003 2.867zm10.62-4.361h-9.292V55.118h3.54v12.61h5.751l.001 2.876zm-20.023-41.48c-12.983 0-23.507 2.785-23.507 6.222v2.765c0 3.437 10.524 6.222 23.507 6.222s23.507-2.785 23.507-6.222v-2.765c-.014-3.439-10.531-6.222-23.507-6.222zm0 8.297c-10.693 0-19.357-.929-19.357-2.074s8.666-2.076 19.357-2.076 19.357.929 19.357 2.076c.001 1.144-8.664 2.074-19.357 2.074z"/></svg>