<svg xmlns="http://www.w3.org/2000/svg" width="100" height="100"><path fill="#FFD300" d="M67.75 0H17.833a5 5 0 0 0-5 5v90a5 5 0 0 0 5 5h65.333a5 5 0 0 0 5-5V20.417L67.75 0z"/><path fill="#FFF" d="M67.75 15.417a5 5 0 0 0 5 5h15.417L67.75 0v15.417z" opacity=".3"/><path fill="#FFF" d="M68.274 33.382l.503 10.666h-1.274c-.246-1.878-.582-3.22-1.006-4.025-.693-1.296-1.616-2.252-2.768-2.868-1.152-.615-2.667-.922-4.545-.922h-6.406v34.75c0 2.795.302 4.539.905 5.232.85.938 2.158 1.408 3.925 1.408h1.576v1.241H39.898v-1.241h1.61c1.923 0 3.287-.581 4.092-1.744.492-.715.738-2.348.738-4.896v-34.75h-5.467c-2.125 0-3.634.157-4.528.469-1.163.425-2.158 1.241-2.985 2.449-.828 1.208-1.32 2.84-1.476 4.897h-1.274l.537-10.666h37.129z"/></svg>