<svg version="1.1" xmlns="http://www.w3.org/2000/svg" xmlns:xlink="http://www.w3.org/1999/xlink" width="100px" height="100px" viewBox="0 0 100 100" xml:space="preserve">
<path fill="#FFD300" d="M67.75,0H17.833c-2.761,0-5,2.239-5,5v90c0,2.761,2.239,5,5,5h65.333c2.761,0,5-2.239,5-5V20.417L67.75,0z"
	/>
<path opacity="0.3" fill="#FFFFFF" d="M67.75,15.417c0,2.761,2.239,5,5,5h15.417L67.75,0V15.417z"/>
<g>
	<path fill="#FFFFFF" d="M68.274,33.382l0.503,10.666h-1.274c-0.246-1.878-0.582-3.22-1.006-4.025
		c-0.693-1.296-1.616-2.252-2.768-2.868c-1.152-0.615-2.667-0.922-4.545-0.922h-6.406v34.75c0,2.795,0.302,4.539,0.905,5.232
		c0.85,0.938,2.158,1.408,3.925,1.408h1.576v1.241H39.898v-1.241h1.61c1.923,0,3.287-0.581,4.092-1.744
		c0.492-0.715,0.738-2.348,0.738-4.896v-34.75h-5.467c-2.125,0-3.634,0.157-4.528,0.469c-1.163,0.425-2.158,1.241-2.985,2.449
		c-0.828,1.208-1.32,2.84-1.476,4.897h-1.274l0.537-10.666H68.274z"/>
</g>
</svg>
