<svg version="1.1" xmlns="http://www.w3.org/2000/svg" xmlns:xlink="http://www.w3.org/1999/xlink" width="100px" height="100px" viewBox="0 0 100 100" xml:space="preserve">
<path opacity="0.9" fill="#231F20" d="M67.75,0H17.833c-2.761,0-5,2.239-5,5v90c0,2.761,2.239,5,5,5h65.333c2.761,0,5-2.239,5-5
	V20.417L67.75,0z"/>
<path opacity="0.4" fill="#FFFFFF" d="M67.75,15.417c0,2.761,2.239,5,5,5h15.417L67.75,0V15.417z"/>
<g id="_x32__action_help">
	<g>
		<path fill="#FFFFFF" d="M44.192,65.506v-2.643c0-1.214,0.13-2.314,0.381-3.3c0.242-0.988,0.628-1.924,1.138-2.818
			c0.512-0.891,1.174-1.76,1.982-2.605c0.804-0.846,1.785-1.722,2.93-2.625c0.999-0.786,1.841-1.489,2.533-2.106
			c0.691-0.619,1.243-1.233,1.679-1.839c0.424-0.606,0.736-1.242,0.92-1.906c0.196-0.669,0.289-1.443,0.289-2.324
			c0-1.356-0.458-2.474-1.369-3.352c-0.925-0.885-2.326-1.32-4.199-1.32c-1.639,0-3.408,0.346-5.299,1.035
			c-1.895,0.689-3.851,1.534-5.873,2.533l-3.644-7.885c1.028-0.595,2.14-1.161,3.341-1.698c1.201-0.535,2.445-1.011,3.747-1.426
			c1.296-0.415,2.611-0.743,3.94-0.982c1.336-0.24,2.644-0.356,3.923-0.356c2.434,0,4.621,0.292,6.574,0.874
			c1.949,0.584,3.604,1.435,4.964,2.551c1.347,1.12,2.387,2.476,3.116,4.07c0.729,1.594,1.093,3.415,1.093,5.458
			c0,1.497-0.171,2.838-0.503,4.016c-0.332,1.179-0.828,2.272-1.48,3.283c-0.653,1.011-1.475,1.985-2.467,2.925
			c-0.988,0.941-2.13,1.931-3.437,2.979c-1.001,0.786-1.819,1.471-2.452,2.052c-0.628,0.581-1.12,1.136-1.48,1.659
			c-0.355,0.526-0.597,1.069-0.729,1.626c-0.133,0.559-0.2,1.217-0.2,1.978v2.144L44.192,65.506L44.192,65.506z M43.019,77.706
			c0-1.116,0.158-2.061,0.478-2.833c0.323-0.777,0.773-1.403,1.345-1.877c0.57-0.476,1.239-0.82,2.014-1.033
			c0.773-0.213,1.594-0.321,2.479-0.321c0.833,0,1.623,0.105,2.371,0.321c0.748,0.216,1.41,0.557,1.982,1.033
			c0.574,0.473,1.021,1.1,1.359,1.877c0.33,0.77,0.497,1.718,0.497,2.833c0,1.074-0.164,1.99-0.497,2.751
			c-0.337,0.763-0.786,1.394-1.359,1.893c-0.573,0.498-1.235,0.862-1.982,1.087c-0.745,0.227-1.536,0.339-2.368,0.339
			c-0.887,0-1.709-0.112-2.479-0.339c-0.777-0.225-1.446-0.589-2.014-1.087c-0.573-0.498-1.021-1.129-1.345-1.893
			C43.178,79.696,43.019,78.78,43.019,77.706z"/>
	</g>
</g>
</svg>
