<svg xmlns="http://www.w3.org/2000/svg" width="100" height="100"><path fill="#424242" d="M67.75 0H17.833a5 5 0 0 0-5 5v90a5 5 0 0 0 5 5h65.333a5 5 0 0 0 5-5V20.417L67.75 0z" opacity=".9"/><path fill="#FFF" d="M67.75 15.417a5 5 0 0 0 5 5h15.417L67.75 0v15.417z" opacity=".4"/><path fill="#FFF" d="M44.192 65.506v-2.643c0-1.214.13-2.314.381-3.3.242-.988.628-1.924 1.138-2.818.512-.891 1.174-1.76 1.982-2.605.804-.846 1.785-1.722 2.93-2.625a54.219 54.219 0 0 0 2.533-2.106 11.511 11.511 0 0 0 1.679-1.839 6.23 6.23 0 0 0 .92-1.906c.196-.669.289-1.443.289-2.324 0-1.356-.458-2.474-1.369-3.352-.925-.885-2.326-1.32-4.199-1.32-1.639 0-3.408.346-5.299 1.035a58.183 58.183 0 0 0-5.873 2.533l-3.644-7.885a35.99 35.99 0 0 1 3.341-1.698 36.207 36.207 0 0 1 3.747-1.426 30.779 30.779 0 0 1 3.94-.982 22.155 22.155 0 0 1 3.923-.356c2.434 0 4.621.292 6.574.874 1.949.584 3.604 1.435 4.964 2.551a11.391 11.391 0 0 1 3.116 4.07c.729 1.594 1.093 3.415 1.093 5.458 0 1.497-.171 2.838-.503 4.016a12.05 12.05 0 0 1-1.48 3.283c-.653 1.011-1.475 1.985-2.467 2.925a53.723 53.723 0 0 1-3.437 2.979 42.763 42.763 0 0 0-2.452 2.052c-.628.581-1.12 1.136-1.48 1.659a4.934 4.934 0 0 0-.729 1.626c-.133.559-.2 1.217-.2 1.978v2.144l-9.418.002zm-1.173 12.2c0-1.116.158-2.061.478-2.833.323-.777.773-1.403 1.345-1.877a5.273 5.273 0 0 1 2.014-1.033 9.268 9.268 0 0 1 2.479-.321c.833 0 1.623.105 2.371.321.748.216 1.41.557 1.982 1.033.574.473 1.021 1.1 1.359 1.877.33.77.497 1.718.497 2.833 0 1.074-.164 1.99-.497 2.751-.337.763-.786 1.394-1.359 1.893a5.333 5.333 0 0 1-1.982 1.087 8.09 8.09 0 0 1-2.368.339 8.707 8.707 0 0 1-2.479-.339 5.205 5.205 0 0 1-2.014-1.087c-.573-.498-1.021-1.129-1.345-1.893-.322-.761-.481-1.677-.481-2.751z"/></svg>
