<svg xmlns="http://www.w3.org/2000/svg" width="100" height="100"><path fill="#F90" d="M67.75 0H17.833a5 5 0 0 0-5 5v90a5 5 0 0 0 5 5h65.333a5 5 0 0 0 5-5V20.417L67.75 0z"/><path fill="#FFF" d="M67.75 15.417a5 5 0 0 0 5 5h15.417L67.75 0v15.417z" opacity=".3"/><path fill="#FFF" d="M73.005 57.65c0-4.533-1.1-8.812-3.037-12.594a3.388 3.388 0 0 0 1.156-2.542 3.413 3.413 0 0 0-3.412-3.412c-.549 0-1.06.142-1.519.372-5.089-5.85-12.578-9.558-20.921-9.558a27.61 27.61 0 0 0-13.037 3.271 2.6 2.6 0 0 0-1.616-.571 2.625 2.625 0 1 0 2.625 2.625c0-.069-.015-.134-.02-.202a25.514 25.514 0 0 1 12.048-3.023c7.76 0 14.72 3.47 19.424 8.935-.245.47-.396.997-.396 1.563 0 .276.042.541.104.798l-.011-.015-16.847 2.322L40.197 57.3l4.287 6.168 13.692-3.281 7.752-14.776c.52.321 1.128.516 1.784.516.112 0 .218-.022.327-.033a25.47 25.47 0 0 1 2.867 11.756c0 7.892-3.609 15.243-9.74 20.092a2.607 2.607 0 0 0-1.415-.42 2.625 2.625 0 1 0 2.625 2.625c0-.154-.02-.303-.045-.449 6.717-5.243 10.674-13.249 10.674-21.848zm-17.333-5.028c.108.377.185.767.185 1.179a4.287 4.287 0 1 1-1.238-3.01l9.853-7.258c.218.693.643 1.29 1.214 1.714l-10.014 7.375z"/></svg>