<svg version="1.1" xmlns="http://www.w3.org/2000/svg" xmlns:xlink="http://www.w3.org/1999/xlink" width="100px" height="100px" viewBox="0 0 100 100" xml:space="preserve">
<path fill="#FF9900" d="M67.75,0H17.833c-2.761,0-5,2.239-5,5v90c0,2.761,2.239,5,5,5h65.333c2.761,0,5-2.239,5-5V20.417L67.75,0z"
	/>
<path opacity="0.3" fill="#FFFFFF" d="M67.75,15.417c0,2.761,2.239,5,5,5h15.417L67.75,0V15.417z"/>
<path fill="#FFFFFF" d="M73.005,57.65c0-4.533-1.1-8.812-3.037-12.594c0.704-0.625,1.156-1.526,1.156-2.542
	c0-1.884-1.528-3.412-3.412-3.412c-0.549,0-1.06,0.142-1.519,0.372c-5.089-5.85-12.578-9.558-20.921-9.558
	c-4.58,0-9.035,1.133-13.037,3.271c-0.447-0.352-1.003-0.571-1.616-0.571c-1.45,0-2.625,1.175-2.625,2.625
	c0,1.449,1.175,2.625,2.625,2.625c1.45,0,2.625-1.175,2.625-2.625c0-0.069-0.015-0.134-0.02-0.202
	c3.698-1.976,7.816-3.023,12.048-3.023c7.76,0,14.72,3.47,19.424,8.935c-0.245,0.47-0.396,0.997-0.396,1.563
	c0,0.276,0.042,0.541,0.104,0.798l-0.011-0.015l-16.847,2.322L40.197,57.3l4.287,6.168l13.692-3.281l7.752-14.776
	c0.52,0.321,1.128,0.516,1.784,0.516c0.112,0,0.218-0.022,0.327-0.033c1.827,3.524,2.867,7.52,2.867,11.756
	c0,7.892-3.609,15.243-9.74,20.092c-0.409-0.263-0.893-0.42-1.415-0.42c-1.45,0-2.625,1.175-2.625,2.625s1.175,2.625,2.625,2.625
	c1.449,0,2.625-1.175,2.625-2.625c0-0.154-0.02-0.303-0.045-0.449C69.048,74.255,73.005,66.249,73.005,57.65z M55.672,52.622
	c0.108,0.377,0.185,0.767,0.185,1.179c0,2.368-1.919,4.287-4.287,4.287c-2.368,0-4.287-1.919-4.287-4.287
	c0-2.368,1.919-4.287,4.287-4.287c1.194,0,2.271,0.489,3.049,1.277l9.853-7.258c0.218,0.693,0.643,1.29,1.214,1.714L55.672,52.622z"
	/>
</svg>
