<svg xmlns="http://www.w3.org/2000/svg" width="100" height="100"><path fill="#FF543D" d="M67.75 0H17.833a5 5 0 0 0-5 5v90a5 5 0 0 0 5 5h65.333a5 5 0 0 0 5-5V20.417L67.75 0z" opacity=".9"/><path fill="#FFF" d="M67.75 15.417a5 5 0 0 0 5 5h15.417L67.75 0v15.417z" opacity=".4"/><path fill="#FFF" d="M33.415 81.667a3.588 3.588 0 0 1-3.591-3.591v-44.09a3.592 3.592 0 0 1 5.449-3.073l36.47 22.045a3.591 3.591 0 0 1 0 6.148l-36.47 22.046a3.615 3.615 0 0 1-1.858.515zm3.591-41.314v31.356L62.941 56.03 37.006 40.353z"/></svg>