<svg version="1.1" xmlns="http://www.w3.org/2000/svg" xmlns:xlink="http://www.w3.org/1999/xlink" width="100px" height="100px" viewBox="0 0 100 100" xml:space="preserve">
<path opacity="0.9" fill="#FF543D" d="M67.75,0H17.833c-2.761,0-5,2.239-5,5v90c0,2.761,2.239,5,5,5h65.333c2.761,0,5-2.239,5-5
	V20.417L67.75,0z"/>
<path opacity="0.4" fill="#FFFFFF" d="M67.75,15.417c0,2.761,2.239,5,5,5h15.417L67.75,0V15.417z"/>
<path fill="#FFFFFF" d="M33.415,81.667c-0.608,0-1.216-0.154-1.764-0.463c-1.129-0.637-1.827-1.833-1.827-3.128v-44.09
	c0-1.296,0.699-2.492,1.827-3.128c1.129-0.636,2.513-0.615,3.622,0.055l36.47,22.045c1.076,0.65,1.734,1.816,1.734,3.074
	s-0.657,2.423-1.734,3.074l-36.47,22.046C34.702,81.494,34.059,81.667,33.415,81.667z M37.006,40.353v31.356L62.941,56.03
	L37.006,40.353z"/>
</svg>
